G04 #@! TF.GenerationSoftware,KiCad,Pcbnew,(5.1.5)-3*
G04 #@! TF.CreationDate,2020-05-24T20:06:03+02:00*
G04 #@! TF.ProjectId,RiserBoard,52697365-7242-46f6-9172-642e6b696361,v0.1*
G04 #@! TF.SameCoordinates,Original*
G04 #@! TF.FileFunction,Soldermask,Top*
G04 #@! TF.FilePolarity,Negative*
%FSLAX46Y46*%
G04 Gerber Fmt 4.6, Leading zero omitted, Abs format (unit mm)*
G04 Created by KiCad (PCBNEW (5.1.5)-3) date 2020-05-24 20:06:03*
%MOMM*%
%LPD*%
G04 APERTURE LIST*
%ADD10C,0.100000*%
G04 APERTURE END LIST*
D10*
G36*
X140079591Y-95553085D02*
G01*
X140113569Y-95563393D01*
X140144890Y-95580134D01*
X140172339Y-95602661D01*
X140194866Y-95630110D01*
X140211607Y-95661431D01*
X140221915Y-95695409D01*
X140226000Y-95736890D01*
X140226000Y-96338110D01*
X140221915Y-96379591D01*
X140211607Y-96413569D01*
X140194866Y-96444890D01*
X140172339Y-96472339D01*
X140144890Y-96494866D01*
X140113569Y-96511607D01*
X140079591Y-96521915D01*
X140038110Y-96526000D01*
X139361890Y-96526000D01*
X139320409Y-96521915D01*
X139286431Y-96511607D01*
X139255110Y-96494866D01*
X139227661Y-96472339D01*
X139205134Y-96444890D01*
X139188393Y-96413569D01*
X139178085Y-96379591D01*
X139174000Y-96338110D01*
X139174000Y-95736890D01*
X139178085Y-95695409D01*
X139188393Y-95661431D01*
X139205134Y-95630110D01*
X139227661Y-95602661D01*
X139255110Y-95580134D01*
X139286431Y-95563393D01*
X139320409Y-95553085D01*
X139361890Y-95549000D01*
X140038110Y-95549000D01*
X140079591Y-95553085D01*
G37*
G36*
X135406000Y-96126000D02*
G01*
X133804000Y-96126000D01*
X133804000Y-94524000D01*
X135406000Y-94524000D01*
X135406000Y-96126000D01*
G37*
G36*
X129006000Y-96126000D02*
G01*
X127404000Y-96126000D01*
X127404000Y-94524000D01*
X129006000Y-94524000D01*
X129006000Y-96126000D01*
G37*
G36*
X132206000Y-96126000D02*
G01*
X130604000Y-96126000D01*
X130604000Y-94524000D01*
X132206000Y-94524000D01*
X132206000Y-96126000D01*
G37*
G36*
X150761000Y-95516000D02*
G01*
X148959000Y-95516000D01*
X148959000Y-93714000D01*
X150761000Y-93714000D01*
X150761000Y-95516000D01*
G37*
G36*
X155053512Y-93718927D02*
G01*
X155202812Y-93748624D01*
X155366784Y-93816544D01*
X155514354Y-93915147D01*
X155639853Y-94040646D01*
X155738456Y-94188216D01*
X155806376Y-94352188D01*
X155836073Y-94501488D01*
X155841000Y-94526258D01*
X155841000Y-94703742D01*
X155836073Y-94728512D01*
X155806376Y-94877812D01*
X155738456Y-95041784D01*
X155639853Y-95189354D01*
X155514354Y-95314853D01*
X155366784Y-95413456D01*
X155202812Y-95481376D01*
X155053512Y-95511073D01*
X155028742Y-95516000D01*
X154851258Y-95516000D01*
X154826488Y-95511073D01*
X154677188Y-95481376D01*
X154513216Y-95413456D01*
X154365646Y-95314853D01*
X154240147Y-95189354D01*
X154141544Y-95041784D01*
X154073624Y-94877812D01*
X154043927Y-94728512D01*
X154039000Y-94703742D01*
X154039000Y-94526258D01*
X154043927Y-94501488D01*
X154073624Y-94352188D01*
X154141544Y-94188216D01*
X154240147Y-94040646D01*
X154365646Y-93915147D01*
X154513216Y-93816544D01*
X154677188Y-93748624D01*
X154826488Y-93718927D01*
X154851258Y-93714000D01*
X155028742Y-93714000D01*
X155053512Y-93718927D01*
G37*
G36*
X152513512Y-93718927D02*
G01*
X152662812Y-93748624D01*
X152826784Y-93816544D01*
X152974354Y-93915147D01*
X153099853Y-94040646D01*
X153198456Y-94188216D01*
X153266376Y-94352188D01*
X153296073Y-94501488D01*
X153301000Y-94526258D01*
X153301000Y-94703742D01*
X153296073Y-94728512D01*
X153266376Y-94877812D01*
X153198456Y-95041784D01*
X153099853Y-95189354D01*
X152974354Y-95314853D01*
X152826784Y-95413456D01*
X152662812Y-95481376D01*
X152513512Y-95511073D01*
X152488742Y-95516000D01*
X152311258Y-95516000D01*
X152286488Y-95511073D01*
X152137188Y-95481376D01*
X151973216Y-95413456D01*
X151825646Y-95314853D01*
X151700147Y-95189354D01*
X151601544Y-95041784D01*
X151533624Y-94877812D01*
X151503927Y-94728512D01*
X151499000Y-94703742D01*
X151499000Y-94526258D01*
X151503927Y-94501488D01*
X151533624Y-94352188D01*
X151601544Y-94188216D01*
X151700147Y-94040646D01*
X151825646Y-93915147D01*
X151973216Y-93816544D01*
X152137188Y-93748624D01*
X152286488Y-93718927D01*
X152311258Y-93714000D01*
X152488742Y-93714000D01*
X152513512Y-93718927D01*
G37*
G36*
X140079591Y-93978085D02*
G01*
X140113569Y-93988393D01*
X140144890Y-94005134D01*
X140172339Y-94027661D01*
X140194866Y-94055110D01*
X140211607Y-94086431D01*
X140221915Y-94120409D01*
X140226000Y-94161890D01*
X140226000Y-94763110D01*
X140221915Y-94804591D01*
X140211607Y-94838569D01*
X140194866Y-94869890D01*
X140172339Y-94897339D01*
X140144890Y-94919866D01*
X140113569Y-94936607D01*
X140079591Y-94946915D01*
X140038110Y-94951000D01*
X139361890Y-94951000D01*
X139320409Y-94946915D01*
X139286431Y-94936607D01*
X139255110Y-94919866D01*
X139227661Y-94897339D01*
X139205134Y-94869890D01*
X139188393Y-94838569D01*
X139178085Y-94804591D01*
X139174000Y-94763110D01*
X139174000Y-94161890D01*
X139178085Y-94120409D01*
X139188393Y-94086431D01*
X139205134Y-94055110D01*
X139227661Y-94027661D01*
X139255110Y-94005134D01*
X139286431Y-93988393D01*
X139320409Y-93978085D01*
X139361890Y-93974000D01*
X140038110Y-93974000D01*
X140079591Y-93978085D01*
G37*
G36*
X144774256Y-90466298D02*
G01*
X144880579Y-90487447D01*
X145181042Y-90611903D01*
X145451451Y-90792585D01*
X145681415Y-91022549D01*
X145862097Y-91292958D01*
X145980746Y-91579401D01*
X145986553Y-91593422D01*
X146050000Y-91912389D01*
X146050000Y-92237611D01*
X146022870Y-92374000D01*
X145986553Y-92556579D01*
X145862097Y-92857042D01*
X145681415Y-93127451D01*
X145451451Y-93357415D01*
X145181042Y-93538097D01*
X144880579Y-93662553D01*
X144774256Y-93683702D01*
X144561611Y-93726000D01*
X144236389Y-93726000D01*
X144023744Y-93683702D01*
X143917421Y-93662553D01*
X143616958Y-93538097D01*
X143346549Y-93357415D01*
X143116585Y-93127451D01*
X142935903Y-92857042D01*
X142811447Y-92556579D01*
X142775130Y-92374000D01*
X142748000Y-92237611D01*
X142748000Y-91912389D01*
X142811447Y-91593422D01*
X142817255Y-91579401D01*
X142935903Y-91292958D01*
X143116585Y-91022549D01*
X143346549Y-90792585D01*
X143616958Y-90611903D01*
X143917421Y-90487447D01*
X144023744Y-90466298D01*
X144236389Y-90424000D01*
X144561611Y-90424000D01*
X144774256Y-90466298D01*
G37*
G36*
X140079591Y-92378085D02*
G01*
X140113569Y-92388393D01*
X140144890Y-92405134D01*
X140172339Y-92427661D01*
X140194866Y-92455110D01*
X140211607Y-92486431D01*
X140221915Y-92520409D01*
X140226000Y-92561890D01*
X140226000Y-93163110D01*
X140221915Y-93204591D01*
X140211607Y-93238569D01*
X140194866Y-93269890D01*
X140172339Y-93297339D01*
X140144890Y-93319866D01*
X140113569Y-93336607D01*
X140079591Y-93346915D01*
X140038110Y-93351000D01*
X139361890Y-93351000D01*
X139320409Y-93346915D01*
X139286431Y-93336607D01*
X139255110Y-93319866D01*
X139227661Y-93297339D01*
X139205134Y-93269890D01*
X139188393Y-93238569D01*
X139178085Y-93204591D01*
X139174000Y-93163110D01*
X139174000Y-92561890D01*
X139178085Y-92520409D01*
X139188393Y-92486431D01*
X139205134Y-92455110D01*
X139227661Y-92427661D01*
X139255110Y-92405134D01*
X139286431Y-92388393D01*
X139320409Y-92378085D01*
X139361890Y-92374000D01*
X140038110Y-92374000D01*
X140079591Y-92378085D01*
G37*
G36*
X155053512Y-91178927D02*
G01*
X155202812Y-91208624D01*
X155366784Y-91276544D01*
X155514354Y-91375147D01*
X155639853Y-91500646D01*
X155738456Y-91648216D01*
X155806376Y-91812188D01*
X155841000Y-91986259D01*
X155841000Y-92163741D01*
X155806376Y-92337812D01*
X155738456Y-92501784D01*
X155639853Y-92649354D01*
X155514354Y-92774853D01*
X155366784Y-92873456D01*
X155202812Y-92941376D01*
X155053512Y-92971073D01*
X155028742Y-92976000D01*
X154851258Y-92976000D01*
X154826488Y-92971073D01*
X154677188Y-92941376D01*
X154513216Y-92873456D01*
X154365646Y-92774853D01*
X154240147Y-92649354D01*
X154141544Y-92501784D01*
X154073624Y-92337812D01*
X154039000Y-92163741D01*
X154039000Y-91986259D01*
X154073624Y-91812188D01*
X154141544Y-91648216D01*
X154240147Y-91500646D01*
X154365646Y-91375147D01*
X154513216Y-91276544D01*
X154677188Y-91208624D01*
X154826488Y-91178927D01*
X154851258Y-91174000D01*
X155028742Y-91174000D01*
X155053512Y-91178927D01*
G37*
G36*
X152513512Y-91178927D02*
G01*
X152662812Y-91208624D01*
X152826784Y-91276544D01*
X152974354Y-91375147D01*
X153099853Y-91500646D01*
X153198456Y-91648216D01*
X153266376Y-91812188D01*
X153301000Y-91986259D01*
X153301000Y-92163741D01*
X153266376Y-92337812D01*
X153198456Y-92501784D01*
X153099853Y-92649354D01*
X152974354Y-92774853D01*
X152826784Y-92873456D01*
X152662812Y-92941376D01*
X152513512Y-92971073D01*
X152488742Y-92976000D01*
X152311258Y-92976000D01*
X152286488Y-92971073D01*
X152137188Y-92941376D01*
X151973216Y-92873456D01*
X151825646Y-92774853D01*
X151700147Y-92649354D01*
X151601544Y-92501784D01*
X151533624Y-92337812D01*
X151499000Y-92163741D01*
X151499000Y-91986259D01*
X151533624Y-91812188D01*
X151601544Y-91648216D01*
X151700147Y-91500646D01*
X151825646Y-91375147D01*
X151973216Y-91276544D01*
X152137188Y-91208624D01*
X152286488Y-91178927D01*
X152311258Y-91174000D01*
X152488742Y-91174000D01*
X152513512Y-91178927D01*
G37*
G36*
X149973512Y-91178927D02*
G01*
X150122812Y-91208624D01*
X150286784Y-91276544D01*
X150434354Y-91375147D01*
X150559853Y-91500646D01*
X150658456Y-91648216D01*
X150726376Y-91812188D01*
X150761000Y-91986259D01*
X150761000Y-92163741D01*
X150726376Y-92337812D01*
X150658456Y-92501784D01*
X150559853Y-92649354D01*
X150434354Y-92774853D01*
X150286784Y-92873456D01*
X150122812Y-92941376D01*
X149973512Y-92971073D01*
X149948742Y-92976000D01*
X149771258Y-92976000D01*
X149746488Y-92971073D01*
X149597188Y-92941376D01*
X149433216Y-92873456D01*
X149285646Y-92774853D01*
X149160147Y-92649354D01*
X149061544Y-92501784D01*
X148993624Y-92337812D01*
X148959000Y-92163741D01*
X148959000Y-91986259D01*
X148993624Y-91812188D01*
X149061544Y-91648216D01*
X149160147Y-91500646D01*
X149285646Y-91375147D01*
X149433216Y-91276544D01*
X149597188Y-91208624D01*
X149746488Y-91178927D01*
X149771258Y-91174000D01*
X149948742Y-91174000D01*
X149973512Y-91178927D01*
G37*
G36*
X129138642Y-91304781D02*
G01*
X129284414Y-91365162D01*
X129284416Y-91365163D01*
X129415608Y-91452822D01*
X129527178Y-91564392D01*
X129570742Y-91629591D01*
X129614838Y-91695586D01*
X129675219Y-91841358D01*
X129706000Y-91996107D01*
X129706000Y-92153893D01*
X129675219Y-92308642D01*
X129618514Y-92445539D01*
X129614837Y-92454416D01*
X129527178Y-92585608D01*
X129415608Y-92697178D01*
X129284416Y-92784837D01*
X129284415Y-92784838D01*
X129284414Y-92784838D01*
X129138642Y-92845219D01*
X128983893Y-92876000D01*
X128826107Y-92876000D01*
X128671358Y-92845219D01*
X128525586Y-92784838D01*
X128525585Y-92784838D01*
X128525584Y-92784837D01*
X128394392Y-92697178D01*
X128282822Y-92585608D01*
X128195163Y-92454416D01*
X128191486Y-92445539D01*
X128134781Y-92308642D01*
X128104000Y-92153893D01*
X128104000Y-91996107D01*
X128134781Y-91841358D01*
X128195162Y-91695586D01*
X128239258Y-91629591D01*
X128282822Y-91564392D01*
X128394392Y-91452822D01*
X128525584Y-91365163D01*
X128525586Y-91365162D01*
X128671358Y-91304781D01*
X128826107Y-91274000D01*
X128983893Y-91274000D01*
X129138642Y-91304781D01*
G37*
G36*
X135138642Y-91304781D02*
G01*
X135284414Y-91365162D01*
X135284416Y-91365163D01*
X135415608Y-91452822D01*
X135527178Y-91564392D01*
X135570742Y-91629591D01*
X135614838Y-91695586D01*
X135675219Y-91841358D01*
X135706000Y-91996107D01*
X135706000Y-92153893D01*
X135675219Y-92308642D01*
X135618514Y-92445539D01*
X135614837Y-92454416D01*
X135527178Y-92585608D01*
X135415608Y-92697178D01*
X135284416Y-92784837D01*
X135284415Y-92784838D01*
X135284414Y-92784838D01*
X135138642Y-92845219D01*
X134983893Y-92876000D01*
X134826107Y-92876000D01*
X134671358Y-92845219D01*
X134525586Y-92784838D01*
X134525585Y-92784838D01*
X134525584Y-92784837D01*
X134394392Y-92697178D01*
X134282822Y-92585608D01*
X134195163Y-92454416D01*
X134191486Y-92445539D01*
X134134781Y-92308642D01*
X134104000Y-92153893D01*
X134104000Y-91996107D01*
X134134781Y-91841358D01*
X134195162Y-91695586D01*
X134239258Y-91629591D01*
X134282822Y-91564392D01*
X134394392Y-91452822D01*
X134525584Y-91365163D01*
X134525586Y-91365162D01*
X134671358Y-91304781D01*
X134826107Y-91274000D01*
X134983893Y-91274000D01*
X135138642Y-91304781D01*
G37*
G36*
X140079591Y-90803085D02*
G01*
X140113569Y-90813393D01*
X140144890Y-90830134D01*
X140172339Y-90852661D01*
X140194866Y-90880110D01*
X140211607Y-90911431D01*
X140221915Y-90945409D01*
X140226000Y-90986890D01*
X140226000Y-91588110D01*
X140221915Y-91629591D01*
X140211607Y-91663569D01*
X140194866Y-91694890D01*
X140172339Y-91722339D01*
X140144890Y-91744866D01*
X140113569Y-91761607D01*
X140079591Y-91771915D01*
X140038110Y-91776000D01*
X139361890Y-91776000D01*
X139320409Y-91771915D01*
X139286431Y-91761607D01*
X139255110Y-91744866D01*
X139227661Y-91722339D01*
X139205134Y-91694890D01*
X139188393Y-91663569D01*
X139178085Y-91629591D01*
X139174000Y-91588110D01*
X139174000Y-90986890D01*
X139178085Y-90945409D01*
X139188393Y-90911431D01*
X139205134Y-90880110D01*
X139227661Y-90852661D01*
X139255110Y-90830134D01*
X139286431Y-90813393D01*
X139320409Y-90803085D01*
X139361890Y-90799000D01*
X140038110Y-90799000D01*
X140079591Y-90803085D01*
G37*
G36*
X140079591Y-89203085D02*
G01*
X140113569Y-89213393D01*
X140144890Y-89230134D01*
X140172339Y-89252661D01*
X140194866Y-89280110D01*
X140211607Y-89311431D01*
X140221915Y-89345409D01*
X140226000Y-89386890D01*
X140226000Y-89988110D01*
X140221915Y-90029591D01*
X140211607Y-90063569D01*
X140194866Y-90094890D01*
X140172339Y-90122339D01*
X140144890Y-90144866D01*
X140113569Y-90161607D01*
X140079591Y-90171915D01*
X140038110Y-90176000D01*
X139361890Y-90176000D01*
X139320409Y-90171915D01*
X139286431Y-90161607D01*
X139255110Y-90144866D01*
X139227661Y-90122339D01*
X139205134Y-90094890D01*
X139188393Y-90063569D01*
X139178085Y-90029591D01*
X139174000Y-89988110D01*
X139174000Y-89386890D01*
X139178085Y-89345409D01*
X139188393Y-89311431D01*
X139205134Y-89280110D01*
X139227661Y-89252661D01*
X139255110Y-89230134D01*
X139286431Y-89213393D01*
X139320409Y-89203085D01*
X139361890Y-89199000D01*
X140038110Y-89199000D01*
X140079591Y-89203085D01*
G37*
G36*
X129006000Y-89626000D02*
G01*
X127404000Y-89626000D01*
X127404000Y-88024000D01*
X129006000Y-88024000D01*
X129006000Y-89626000D01*
G37*
G36*
X135406000Y-89626000D02*
G01*
X133804000Y-89626000D01*
X133804000Y-88024000D01*
X135406000Y-88024000D01*
X135406000Y-89626000D01*
G37*
G36*
X132206000Y-89626000D02*
G01*
X130604000Y-89626000D01*
X130604000Y-88024000D01*
X132206000Y-88024000D01*
X132206000Y-89626000D01*
G37*
G36*
X155053512Y-87368927D02*
G01*
X155202812Y-87398624D01*
X155366784Y-87466544D01*
X155514354Y-87565147D01*
X155639853Y-87690646D01*
X155738456Y-87838216D01*
X155806376Y-88002188D01*
X155833272Y-88137408D01*
X155841000Y-88176258D01*
X155841000Y-88353742D01*
X155836073Y-88378512D01*
X155806376Y-88527812D01*
X155738456Y-88691784D01*
X155639853Y-88839354D01*
X155514354Y-88964853D01*
X155366784Y-89063456D01*
X155202812Y-89131376D01*
X155053512Y-89161073D01*
X155028742Y-89166000D01*
X154851258Y-89166000D01*
X154826488Y-89161073D01*
X154677188Y-89131376D01*
X154513216Y-89063456D01*
X154365646Y-88964853D01*
X154240147Y-88839354D01*
X154141544Y-88691784D01*
X154073624Y-88527812D01*
X154043927Y-88378512D01*
X154039000Y-88353742D01*
X154039000Y-88176258D01*
X154046728Y-88137408D01*
X154073624Y-88002188D01*
X154141544Y-87838216D01*
X154240147Y-87690646D01*
X154365646Y-87565147D01*
X154513216Y-87466544D01*
X154677188Y-87398624D01*
X154826488Y-87368927D01*
X154851258Y-87364000D01*
X155028742Y-87364000D01*
X155053512Y-87368927D01*
G37*
G36*
X152513512Y-87368927D02*
G01*
X152662812Y-87398624D01*
X152826784Y-87466544D01*
X152974354Y-87565147D01*
X153099853Y-87690646D01*
X153198456Y-87838216D01*
X153266376Y-88002188D01*
X153293272Y-88137408D01*
X153301000Y-88176258D01*
X153301000Y-88353742D01*
X153296073Y-88378512D01*
X153266376Y-88527812D01*
X153198456Y-88691784D01*
X153099853Y-88839354D01*
X152974354Y-88964853D01*
X152826784Y-89063456D01*
X152662812Y-89131376D01*
X152513512Y-89161073D01*
X152488742Y-89166000D01*
X152311258Y-89166000D01*
X152286488Y-89161073D01*
X152137188Y-89131376D01*
X151973216Y-89063456D01*
X151825646Y-88964853D01*
X151700147Y-88839354D01*
X151601544Y-88691784D01*
X151533624Y-88527812D01*
X151503927Y-88378512D01*
X151499000Y-88353742D01*
X151499000Y-88176258D01*
X151506728Y-88137408D01*
X151533624Y-88002188D01*
X151601544Y-87838216D01*
X151700147Y-87690646D01*
X151825646Y-87565147D01*
X151973216Y-87466544D01*
X152137188Y-87398624D01*
X152286488Y-87368927D01*
X152311258Y-87364000D01*
X152488742Y-87364000D01*
X152513512Y-87368927D01*
G37*
G36*
X150761000Y-89166000D02*
G01*
X148959000Y-89166000D01*
X148959000Y-87364000D01*
X150761000Y-87364000D01*
X150761000Y-89166000D01*
G37*
G36*
X140079591Y-87628085D02*
G01*
X140113569Y-87638393D01*
X140144890Y-87655134D01*
X140172339Y-87677661D01*
X140194866Y-87705110D01*
X140211607Y-87736431D01*
X140221915Y-87770409D01*
X140226000Y-87811890D01*
X140226000Y-88413110D01*
X140221915Y-88454591D01*
X140211607Y-88488569D01*
X140194866Y-88519890D01*
X140172339Y-88547339D01*
X140144890Y-88569866D01*
X140113569Y-88586607D01*
X140079591Y-88596915D01*
X140038110Y-88601000D01*
X139361890Y-88601000D01*
X139320409Y-88596915D01*
X139286431Y-88586607D01*
X139255110Y-88569866D01*
X139227661Y-88547339D01*
X139205134Y-88519890D01*
X139188393Y-88488569D01*
X139178085Y-88454591D01*
X139174000Y-88413110D01*
X139174000Y-87811890D01*
X139178085Y-87770409D01*
X139188393Y-87736431D01*
X139205134Y-87705110D01*
X139227661Y-87677661D01*
X139255110Y-87655134D01*
X139286431Y-87638393D01*
X139320409Y-87628085D01*
X139361890Y-87624000D01*
X140038110Y-87624000D01*
X140079591Y-87628085D01*
G37*
G36*
X144334591Y-87108085D02*
G01*
X144368569Y-87118393D01*
X144399890Y-87135134D01*
X144427339Y-87157661D01*
X144449866Y-87185110D01*
X144466607Y-87216431D01*
X144476915Y-87250409D01*
X144481000Y-87291890D01*
X144481000Y-87968110D01*
X144476915Y-88009591D01*
X144466607Y-88043569D01*
X144449866Y-88074890D01*
X144427339Y-88102339D01*
X144399890Y-88124866D01*
X144368569Y-88141607D01*
X144334591Y-88151915D01*
X144293110Y-88156000D01*
X143691890Y-88156000D01*
X143650409Y-88151915D01*
X143616431Y-88141607D01*
X143585110Y-88124866D01*
X143557661Y-88102339D01*
X143535134Y-88074890D01*
X143518393Y-88043569D01*
X143508085Y-88009591D01*
X143504000Y-87968110D01*
X143504000Y-87291890D01*
X143508085Y-87250409D01*
X143518393Y-87216431D01*
X143535134Y-87185110D01*
X143557661Y-87157661D01*
X143585110Y-87135134D01*
X143616431Y-87118393D01*
X143650409Y-87108085D01*
X143691890Y-87104000D01*
X144293110Y-87104000D01*
X144334591Y-87108085D01*
G37*
G36*
X145909591Y-87108085D02*
G01*
X145943569Y-87118393D01*
X145974890Y-87135134D01*
X146002339Y-87157661D01*
X146024866Y-87185110D01*
X146041607Y-87216431D01*
X146051915Y-87250409D01*
X146056000Y-87291890D01*
X146056000Y-87968110D01*
X146051915Y-88009591D01*
X146041607Y-88043569D01*
X146024866Y-88074890D01*
X146002339Y-88102339D01*
X145974890Y-88124866D01*
X145943569Y-88141607D01*
X145909591Y-88151915D01*
X145868110Y-88156000D01*
X145266890Y-88156000D01*
X145225409Y-88151915D01*
X145191431Y-88141607D01*
X145160110Y-88124866D01*
X145132661Y-88102339D01*
X145110134Y-88074890D01*
X145093393Y-88043569D01*
X145083085Y-88009591D01*
X145079000Y-87968110D01*
X145079000Y-87291890D01*
X145083085Y-87250409D01*
X145093393Y-87216431D01*
X145110134Y-87185110D01*
X145132661Y-87157661D01*
X145160110Y-87135134D01*
X145191431Y-87118393D01*
X145225409Y-87108085D01*
X145266890Y-87104000D01*
X145868110Y-87104000D01*
X145909591Y-87108085D01*
G37*
G36*
X152513512Y-84828927D02*
G01*
X152662812Y-84858624D01*
X152826784Y-84926544D01*
X152974354Y-85025147D01*
X153099853Y-85150646D01*
X153198456Y-85298216D01*
X153266376Y-85462188D01*
X153289191Y-85576890D01*
X153300402Y-85633250D01*
X153301000Y-85636259D01*
X153301000Y-85813741D01*
X153266376Y-85987812D01*
X153198456Y-86151784D01*
X153099853Y-86299354D01*
X152974354Y-86424853D01*
X152826784Y-86523456D01*
X152662812Y-86591376D01*
X152513512Y-86621073D01*
X152488742Y-86626000D01*
X152311258Y-86626000D01*
X152286488Y-86621073D01*
X152137188Y-86591376D01*
X151973216Y-86523456D01*
X151825646Y-86424853D01*
X151700147Y-86299354D01*
X151601544Y-86151784D01*
X151533624Y-85987812D01*
X151499000Y-85813741D01*
X151499000Y-85636259D01*
X151499599Y-85633250D01*
X151510809Y-85576890D01*
X151533624Y-85462188D01*
X151601544Y-85298216D01*
X151700147Y-85150646D01*
X151825646Y-85025147D01*
X151973216Y-84926544D01*
X152137188Y-84858624D01*
X152286488Y-84828927D01*
X152311258Y-84824000D01*
X152488742Y-84824000D01*
X152513512Y-84828927D01*
G37*
G36*
X155053512Y-84828927D02*
G01*
X155202812Y-84858624D01*
X155366784Y-84926544D01*
X155514354Y-85025147D01*
X155639853Y-85150646D01*
X155738456Y-85298216D01*
X155806376Y-85462188D01*
X155829191Y-85576890D01*
X155840402Y-85633250D01*
X155841000Y-85636259D01*
X155841000Y-85813741D01*
X155806376Y-85987812D01*
X155738456Y-86151784D01*
X155639853Y-86299354D01*
X155514354Y-86424853D01*
X155366784Y-86523456D01*
X155202812Y-86591376D01*
X155053512Y-86621073D01*
X155028742Y-86626000D01*
X154851258Y-86626000D01*
X154826488Y-86621073D01*
X154677188Y-86591376D01*
X154513216Y-86523456D01*
X154365646Y-86424853D01*
X154240147Y-86299354D01*
X154141544Y-86151784D01*
X154073624Y-85987812D01*
X154039000Y-85813741D01*
X154039000Y-85636259D01*
X154039599Y-85633250D01*
X154050809Y-85576890D01*
X154073624Y-85462188D01*
X154141544Y-85298216D01*
X154240147Y-85150646D01*
X154365646Y-85025147D01*
X154513216Y-84926544D01*
X154677188Y-84858624D01*
X154826488Y-84828927D01*
X154851258Y-84824000D01*
X155028742Y-84824000D01*
X155053512Y-84828927D01*
G37*
G36*
X149973512Y-84828927D02*
G01*
X150122812Y-84858624D01*
X150286784Y-84926544D01*
X150434354Y-85025147D01*
X150559853Y-85150646D01*
X150658456Y-85298216D01*
X150726376Y-85462188D01*
X150749191Y-85576890D01*
X150760402Y-85633250D01*
X150761000Y-85636259D01*
X150761000Y-85813741D01*
X150726376Y-85987812D01*
X150658456Y-86151784D01*
X150559853Y-86299354D01*
X150434354Y-86424853D01*
X150286784Y-86523456D01*
X150122812Y-86591376D01*
X149973512Y-86621073D01*
X149948742Y-86626000D01*
X149771258Y-86626000D01*
X149746488Y-86621073D01*
X149597188Y-86591376D01*
X149433216Y-86523456D01*
X149285646Y-86424853D01*
X149160147Y-86299354D01*
X149061544Y-86151784D01*
X148993624Y-85987812D01*
X148959000Y-85813741D01*
X148959000Y-85636259D01*
X148959599Y-85633250D01*
X148970809Y-85576890D01*
X148993624Y-85462188D01*
X149061544Y-85298216D01*
X149160147Y-85150646D01*
X149285646Y-85025147D01*
X149433216Y-84926544D01*
X149597188Y-84858624D01*
X149746488Y-84828927D01*
X149771258Y-84824000D01*
X149948742Y-84824000D01*
X149973512Y-84828927D01*
G37*
G36*
X146429591Y-85393085D02*
G01*
X146463569Y-85403393D01*
X146494890Y-85420134D01*
X146522339Y-85442661D01*
X146544866Y-85470110D01*
X146561607Y-85501431D01*
X146571915Y-85535409D01*
X146576000Y-85576890D01*
X146576000Y-86178110D01*
X146571915Y-86219591D01*
X146561607Y-86253569D01*
X146544866Y-86284890D01*
X146522339Y-86312339D01*
X146494890Y-86334866D01*
X146463569Y-86351607D01*
X146429591Y-86361915D01*
X146388110Y-86366000D01*
X145711890Y-86366000D01*
X145670409Y-86361915D01*
X145636431Y-86351607D01*
X145605110Y-86334866D01*
X145577661Y-86312339D01*
X145555134Y-86284890D01*
X145538393Y-86253569D01*
X145528085Y-86219591D01*
X145524000Y-86178110D01*
X145524000Y-85576890D01*
X145528085Y-85535409D01*
X145538393Y-85501431D01*
X145555134Y-85470110D01*
X145577661Y-85442661D01*
X145605110Y-85420134D01*
X145636431Y-85403393D01*
X145670409Y-85393085D01*
X145711890Y-85389000D01*
X146388110Y-85389000D01*
X146429591Y-85393085D01*
G37*
G36*
X144524591Y-85393085D02*
G01*
X144558569Y-85403393D01*
X144589890Y-85420134D01*
X144617339Y-85442661D01*
X144639866Y-85470110D01*
X144656607Y-85501431D01*
X144666915Y-85535409D01*
X144671000Y-85576890D01*
X144671000Y-86178110D01*
X144666915Y-86219591D01*
X144656607Y-86253569D01*
X144639866Y-86284890D01*
X144617339Y-86312339D01*
X144589890Y-86334866D01*
X144558569Y-86351607D01*
X144524591Y-86361915D01*
X144483110Y-86366000D01*
X143806890Y-86366000D01*
X143765409Y-86361915D01*
X143731431Y-86351607D01*
X143700110Y-86334866D01*
X143672661Y-86312339D01*
X143650134Y-86284890D01*
X143633393Y-86253569D01*
X143623085Y-86219591D01*
X143619000Y-86178110D01*
X143619000Y-85576890D01*
X143623085Y-85535409D01*
X143633393Y-85501431D01*
X143650134Y-85470110D01*
X143672661Y-85442661D01*
X143700110Y-85420134D01*
X143731431Y-85403393D01*
X143765409Y-85393085D01*
X143806890Y-85389000D01*
X144483110Y-85389000D01*
X144524591Y-85393085D01*
G37*
G36*
X146429591Y-83818085D02*
G01*
X146463569Y-83828393D01*
X146494890Y-83845134D01*
X146522339Y-83867661D01*
X146544866Y-83895110D01*
X146561607Y-83926431D01*
X146571915Y-83960409D01*
X146576000Y-84001890D01*
X146576000Y-84603110D01*
X146571915Y-84644591D01*
X146561607Y-84678569D01*
X146544866Y-84709890D01*
X146522339Y-84737339D01*
X146494890Y-84759866D01*
X146463569Y-84776607D01*
X146429591Y-84786915D01*
X146388110Y-84791000D01*
X145711890Y-84791000D01*
X145670409Y-84786915D01*
X145636431Y-84776607D01*
X145605110Y-84759866D01*
X145577661Y-84737339D01*
X145555134Y-84709890D01*
X145538393Y-84678569D01*
X145528085Y-84644591D01*
X145524000Y-84603110D01*
X145524000Y-84001890D01*
X145528085Y-83960409D01*
X145538393Y-83926431D01*
X145555134Y-83895110D01*
X145577661Y-83867661D01*
X145605110Y-83845134D01*
X145636431Y-83828393D01*
X145670409Y-83818085D01*
X145711890Y-83814000D01*
X146388110Y-83814000D01*
X146429591Y-83818085D01*
G37*
G36*
X144524591Y-83818085D02*
G01*
X144558569Y-83828393D01*
X144589890Y-83845134D01*
X144617339Y-83867661D01*
X144639866Y-83895110D01*
X144656607Y-83926431D01*
X144666915Y-83960409D01*
X144671000Y-84001890D01*
X144671000Y-84603110D01*
X144666915Y-84644591D01*
X144656607Y-84678569D01*
X144639866Y-84709890D01*
X144617339Y-84737339D01*
X144589890Y-84759866D01*
X144558569Y-84776607D01*
X144524591Y-84786915D01*
X144483110Y-84791000D01*
X143806890Y-84791000D01*
X143765409Y-84786915D01*
X143731431Y-84776607D01*
X143700110Y-84759866D01*
X143672661Y-84737339D01*
X143650134Y-84709890D01*
X143633393Y-84678569D01*
X143623085Y-84644591D01*
X143619000Y-84603110D01*
X143619000Y-84001890D01*
X143623085Y-83960409D01*
X143633393Y-83926431D01*
X143650134Y-83895110D01*
X143672661Y-83867661D01*
X143700110Y-83845134D01*
X143731431Y-83828393D01*
X143765409Y-83818085D01*
X143806890Y-83814000D01*
X144483110Y-83814000D01*
X144524591Y-83818085D01*
G37*
M02*
