G04 #@! TF.GenerationSoftware,KiCad,Pcbnew,(5.1.5)-3*
G04 #@! TF.CreationDate,2020-03-24T14:08:44+01:00*
G04 #@! TF.ProjectId,RiserBoard,52697365-7242-46f6-9172-642e6b696361,v0.0*
G04 #@! TF.SameCoordinates,Original*
G04 #@! TF.FileFunction,Legend,Top*
G04 #@! TF.FilePolarity,Positive*
%FSLAX46Y46*%
G04 Gerber Fmt 4.6, Leading zero omitted, Abs format (unit mm)*
G04 Created by KiCad (PCBNEW (5.1.5)-3) date 2020-03-24 14:08:44*
%MOMM*%
%LPD*%
G04 APERTURE LIST*
%ADD10C,0.120000*%
G04 APERTURE END LIST*
D10*
X130165000Y-94805500D02*
X130165000Y-96805500D01*
X127365000Y-94805500D02*
X127365000Y-96805500D01*
X127365000Y-94805500D02*
X126790000Y-94805500D01*
X136465000Y-94805500D02*
X130165000Y-94805500D01*
X140865000Y-94805500D02*
X139665000Y-94805500D01*
X140865000Y-92705500D02*
X140865000Y-94805500D01*
X140865000Y-88805500D02*
X140865000Y-89505500D01*
X132065000Y-88805500D02*
X140865000Y-88805500D01*
X160715000Y-95945000D02*
X160715000Y-90745000D01*
X155575000Y-95945000D02*
X160715000Y-95945000D01*
X152975000Y-90745000D02*
X160715000Y-90745000D01*
X155575000Y-95945000D02*
X155575000Y-93345000D01*
X155575000Y-93345000D02*
X152975000Y-93345000D01*
X152975000Y-93345000D02*
X152975000Y-90745000D01*
X154305000Y-95945000D02*
X152975000Y-95945000D01*
X152975000Y-95945000D02*
X152975000Y-94615000D01*
X152975000Y-89595000D02*
X152975000Y-88265000D01*
X154305000Y-89595000D02*
X152975000Y-89595000D01*
X152975000Y-86995000D02*
X152975000Y-84395000D01*
X155575000Y-86995000D02*
X152975000Y-86995000D01*
X155575000Y-89595000D02*
X155575000Y-86995000D01*
X152975000Y-84395000D02*
X160715000Y-84395000D01*
X155575000Y-89595000D02*
X160715000Y-89595000D01*
X160715000Y-89595000D02*
X160715000Y-84395000D01*
X145540000Y-88427779D02*
X145540000Y-88102221D01*
X146560000Y-88427779D02*
X146560000Y-88102221D01*
X146560000Y-85252779D02*
X146560000Y-84927221D01*
X145540000Y-85252779D02*
X145540000Y-84927221D01*
X148080000Y-88427779D02*
X148080000Y-88102221D01*
X149100000Y-88427779D02*
X149100000Y-88102221D01*
X149100000Y-85252779D02*
X149100000Y-84927221D01*
X148080000Y-85252779D02*
X148080000Y-84927221D01*
X150620000Y-88427779D02*
X150620000Y-88102221D01*
X151640000Y-88427779D02*
X151640000Y-88102221D01*
X151640000Y-85252779D02*
X151640000Y-84927221D01*
X150620000Y-85252779D02*
X150620000Y-84927221D01*
M02*
