G04 #@! TF.GenerationSoftware,KiCad,Pcbnew,(5.1.5)-3*
G04 #@! TF.CreationDate,2020-03-24T14:08:44+01:00*
G04 #@! TF.ProjectId,RiserBoard,52697365-7242-46f6-9172-642e6b696361,v0.0*
G04 #@! TF.SameCoordinates,Original*
G04 #@! TF.FileFunction,Legend,Bot*
G04 #@! TF.FilePolarity,Positive*
%FSLAX46Y46*%
G04 Gerber Fmt 4.6, Leading zero omitted, Abs format (unit mm)*
G04 Created by KiCad (PCBNEW (5.1.5)-3) date 2020-03-24 14:08:44*
%MOMM*%
%LPD*%
G04 APERTURE LIST*
%ADD10C,0.300000*%
%ADD11C,0.120000*%
%ADD12C,0.150000*%
G04 APERTURE END LIST*
D10*
X131047857Y-95563571D02*
X130690714Y-96563571D01*
X130333571Y-95563571D01*
X129476428Y-95063571D02*
X129333571Y-95063571D01*
X129190714Y-95135000D01*
X129119285Y-95206428D01*
X129047857Y-95349285D01*
X128976428Y-95635000D01*
X128976428Y-95992142D01*
X129047857Y-96277857D01*
X129119285Y-96420714D01*
X129190714Y-96492142D01*
X129333571Y-96563571D01*
X129476428Y-96563571D01*
X129619285Y-96492142D01*
X129690714Y-96420714D01*
X129762142Y-96277857D01*
X129833571Y-95992142D01*
X129833571Y-95635000D01*
X129762142Y-95349285D01*
X129690714Y-95206428D01*
X129619285Y-95135000D01*
X129476428Y-95063571D01*
X128333571Y-96420714D02*
X128262142Y-96492142D01*
X128333571Y-96563571D01*
X128405000Y-96492142D01*
X128333571Y-96420714D01*
X128333571Y-96563571D01*
X127333571Y-95063571D02*
X127190714Y-95063571D01*
X127047857Y-95135000D01*
X126976428Y-95206428D01*
X126905000Y-95349285D01*
X126833571Y-95635000D01*
X126833571Y-95992142D01*
X126905000Y-96277857D01*
X126976428Y-96420714D01*
X127047857Y-96492142D01*
X127190714Y-96563571D01*
X127333571Y-96563571D01*
X127476428Y-96492142D01*
X127547857Y-96420714D01*
X127619285Y-96277857D01*
X127690714Y-95992142D01*
X127690714Y-95635000D01*
X127619285Y-95349285D01*
X127547857Y-95206428D01*
X127476428Y-95135000D01*
X127333571Y-95063571D01*
X133282142Y-88872142D02*
X133067857Y-88943571D01*
X132710714Y-88943571D01*
X132567857Y-88872142D01*
X132496428Y-88800714D01*
X132425000Y-88657857D01*
X132425000Y-88515000D01*
X132496428Y-88372142D01*
X132567857Y-88300714D01*
X132710714Y-88229285D01*
X132996428Y-88157857D01*
X133139285Y-88086428D01*
X133210714Y-88015000D01*
X133282142Y-87872142D01*
X133282142Y-87729285D01*
X133210714Y-87586428D01*
X133139285Y-87515000D01*
X132996428Y-87443571D01*
X132639285Y-87443571D01*
X132425000Y-87515000D01*
X131139285Y-88872142D02*
X131282142Y-88943571D01*
X131567857Y-88943571D01*
X131710714Y-88872142D01*
X131782142Y-88800714D01*
X131853571Y-88657857D01*
X131853571Y-88229285D01*
X131782142Y-88086428D01*
X131710714Y-88015000D01*
X131567857Y-87943571D01*
X131282142Y-87943571D01*
X131139285Y-88015000D01*
X130496428Y-88943571D02*
X130496428Y-87443571D01*
X129853571Y-88943571D02*
X129853571Y-88157857D01*
X129925000Y-88015000D01*
X130067857Y-87943571D01*
X130282142Y-87943571D01*
X130425000Y-88015000D01*
X130496428Y-88086428D01*
X129139285Y-88943571D02*
X129139285Y-87943571D01*
X129139285Y-87443571D02*
X129210714Y-87515000D01*
X129139285Y-87586428D01*
X129067857Y-87515000D01*
X129139285Y-87443571D01*
X129139285Y-87586428D01*
X128210714Y-88943571D02*
X128353571Y-88872142D01*
X128425000Y-88729285D01*
X128425000Y-87443571D01*
X127639285Y-88943571D02*
X127639285Y-87443571D01*
X127496428Y-88372142D02*
X127067857Y-88943571D01*
X127067857Y-87943571D02*
X127639285Y-88515000D01*
X144370714Y-92518571D02*
X143442142Y-92518571D01*
X143942142Y-93090000D01*
X143727857Y-93090000D01*
X143585000Y-93161428D01*
X143513571Y-93232857D01*
X143442142Y-93375714D01*
X143442142Y-93732857D01*
X143513571Y-93875714D01*
X143585000Y-93947142D01*
X143727857Y-94018571D01*
X144156428Y-94018571D01*
X144299285Y-93947142D01*
X144370714Y-93875714D01*
X142799285Y-93875714D02*
X142727857Y-93947142D01*
X142799285Y-94018571D01*
X142870714Y-93947142D01*
X142799285Y-93875714D01*
X142799285Y-94018571D01*
X141370714Y-92518571D02*
X142085000Y-92518571D01*
X142156428Y-93232857D01*
X142085000Y-93161428D01*
X141942142Y-93090000D01*
X141585000Y-93090000D01*
X141442142Y-93161428D01*
X141370714Y-93232857D01*
X141299285Y-93375714D01*
X141299285Y-93732857D01*
X141370714Y-93875714D01*
X141442142Y-93947142D01*
X141585000Y-94018571D01*
X141942142Y-94018571D01*
X142085000Y-93947142D01*
X142156428Y-93875714D01*
X143370714Y-96568571D02*
X143870714Y-95854285D01*
X144227857Y-96568571D02*
X144227857Y-95068571D01*
X143656428Y-95068571D01*
X143513571Y-95140000D01*
X143442142Y-95211428D01*
X143370714Y-95354285D01*
X143370714Y-95568571D01*
X143442142Y-95711428D01*
X143513571Y-95782857D01*
X143656428Y-95854285D01*
X144227857Y-95854285D01*
X142727857Y-96568571D02*
X142727857Y-95568571D01*
X142727857Y-95068571D02*
X142799285Y-95140000D01*
X142727857Y-95211428D01*
X142656428Y-95140000D01*
X142727857Y-95068571D01*
X142727857Y-95211428D01*
X142085000Y-96497142D02*
X141942142Y-96568571D01*
X141656428Y-96568571D01*
X141513571Y-96497142D01*
X141442142Y-96354285D01*
X141442142Y-96282857D01*
X141513571Y-96140000D01*
X141656428Y-96068571D01*
X141870714Y-96068571D01*
X142013571Y-95997142D01*
X142085000Y-95854285D01*
X142085000Y-95782857D01*
X142013571Y-95640000D01*
X141870714Y-95568571D01*
X141656428Y-95568571D01*
X141513571Y-95640000D01*
X140227857Y-96497142D02*
X140370714Y-96568571D01*
X140656428Y-96568571D01*
X140799285Y-96497142D01*
X140870714Y-96354285D01*
X140870714Y-95782857D01*
X140799285Y-95640000D01*
X140656428Y-95568571D01*
X140370714Y-95568571D01*
X140227857Y-95640000D01*
X140156428Y-95782857D01*
X140156428Y-95925714D01*
X140870714Y-96068571D01*
X139513571Y-96568571D02*
X139513571Y-95568571D01*
X139513571Y-95854285D02*
X139442142Y-95711428D01*
X139370714Y-95640000D01*
X139227857Y-95568571D01*
X139085000Y-95568571D01*
X138085000Y-95782857D02*
X137870714Y-95854285D01*
X137799285Y-95925714D01*
X137727857Y-96068571D01*
X137727857Y-96282857D01*
X137799285Y-96425714D01*
X137870714Y-96497142D01*
X138013571Y-96568571D01*
X138585000Y-96568571D01*
X138585000Y-95068571D01*
X138085000Y-95068571D01*
X137942142Y-95140000D01*
X137870714Y-95211428D01*
X137799285Y-95354285D01*
X137799285Y-95497142D01*
X137870714Y-95640000D01*
X137942142Y-95711428D01*
X138085000Y-95782857D01*
X138585000Y-95782857D01*
X136870714Y-96568571D02*
X137013571Y-96497142D01*
X137085000Y-96425714D01*
X137156428Y-96282857D01*
X137156428Y-95854285D01*
X137085000Y-95711428D01*
X137013571Y-95640000D01*
X136870714Y-95568571D01*
X136656428Y-95568571D01*
X136513571Y-95640000D01*
X136442142Y-95711428D01*
X136370714Y-95854285D01*
X136370714Y-96282857D01*
X136442142Y-96425714D01*
X136513571Y-96497142D01*
X136656428Y-96568571D01*
X136870714Y-96568571D01*
X135085000Y-96568571D02*
X135085000Y-95782857D01*
X135156428Y-95640000D01*
X135299285Y-95568571D01*
X135585000Y-95568571D01*
X135727857Y-95640000D01*
X135085000Y-96497142D02*
X135227857Y-96568571D01*
X135585000Y-96568571D01*
X135727857Y-96497142D01*
X135799285Y-96354285D01*
X135799285Y-96211428D01*
X135727857Y-96068571D01*
X135585000Y-95997142D01*
X135227857Y-95997142D01*
X135085000Y-95925714D01*
X134370714Y-96568571D02*
X134370714Y-95568571D01*
X134370714Y-95854285D02*
X134299285Y-95711428D01*
X134227857Y-95640000D01*
X134085000Y-95568571D01*
X133942142Y-95568571D01*
X132799285Y-96568571D02*
X132799285Y-95068571D01*
X132799285Y-96497142D02*
X132942142Y-96568571D01*
X133227857Y-96568571D01*
X133370714Y-96497142D01*
X133442142Y-96425714D01*
X133513571Y-96282857D01*
X133513571Y-95854285D01*
X133442142Y-95711428D01*
X133370714Y-95640000D01*
X133227857Y-95568571D01*
X132942142Y-95568571D01*
X132799285Y-95640000D01*
D11*
X142712221Y-88140000D02*
X143037779Y-88140000D01*
X142712221Y-87120000D02*
X143037779Y-87120000D01*
D12*
X140501666Y-88082380D02*
X140835000Y-87606190D01*
X141073095Y-88082380D02*
X141073095Y-87082380D01*
X140692142Y-87082380D01*
X140596904Y-87130000D01*
X140549285Y-87177619D01*
X140501666Y-87272857D01*
X140501666Y-87415714D01*
X140549285Y-87510952D01*
X140596904Y-87558571D01*
X140692142Y-87606190D01*
X141073095Y-87606190D01*
X139549285Y-88082380D02*
X140120714Y-88082380D01*
X139835000Y-88082380D02*
X139835000Y-87082380D01*
X139930238Y-87225238D01*
X140025476Y-87320476D01*
X140120714Y-87368095D01*
M02*
