G04 #@! TF.GenerationSoftware,KiCad,Pcbnew,(5.1.5)-3*
G04 #@! TF.CreationDate,2020-05-24T09:41:01+02:00*
G04 #@! TF.ProjectId,RiserBoard,52697365-7242-46f6-9172-642e6b696361,v0.0*
G04 #@! TF.SameCoordinates,Original*
G04 #@! TF.FileFunction,Legend,Top*
G04 #@! TF.FilePolarity,Positive*
%FSLAX46Y46*%
G04 Gerber Fmt 4.6, Leading zero omitted, Abs format (unit mm)*
G04 Created by KiCad (PCBNEW (5.1.5)-3) date 2020-05-24 09:41:01*
%MOMM*%
%LPD*%
G04 APERTURE LIST*
%ADD10C,0.120000*%
%ADD11C,0.150000*%
G04 APERTURE END LIST*
D10*
X137905000Y-89075000D02*
X137905000Y-92075000D01*
X132655000Y-89075000D02*
X133655000Y-89075000D01*
X133655000Y-89075000D02*
X132905000Y-89075000D01*
X132905000Y-89075000D02*
X132405000Y-89075000D01*
X127155000Y-89075000D02*
X126655000Y-89075000D01*
X129155000Y-89075000D02*
X130405000Y-89075000D01*
X135655000Y-89075000D02*
X137905000Y-89075000D01*
X137905000Y-95075000D02*
X137905000Y-92075000D01*
X135655000Y-95075000D02*
X137905000Y-95075000D01*
X132905000Y-95075000D02*
X132405000Y-95075000D01*
X133655000Y-95075000D02*
X132905000Y-95075000D01*
X132655000Y-95075000D02*
X133655000Y-95075000D01*
X129155000Y-95075000D02*
X130405000Y-95075000D01*
X127155000Y-95075000D02*
X126655000Y-95075000D01*
X156270000Y-95945000D02*
X156270000Y-90745000D01*
X151130000Y-95945000D02*
X156270000Y-95945000D01*
X148530000Y-90745000D02*
X156270000Y-90745000D01*
X151130000Y-95945000D02*
X151130000Y-93345000D01*
X151130000Y-93345000D02*
X148530000Y-93345000D01*
X148530000Y-93345000D02*
X148530000Y-90745000D01*
X149860000Y-95945000D02*
X148530000Y-95945000D01*
X148530000Y-95945000D02*
X148530000Y-94615000D01*
X148530000Y-89595000D02*
X148530000Y-88265000D01*
X149860000Y-89595000D02*
X148530000Y-89595000D01*
X148530000Y-86995000D02*
X148530000Y-84395000D01*
X151130000Y-86995000D02*
X148530000Y-86995000D01*
X151130000Y-89595000D02*
X151130000Y-86995000D01*
X148530000Y-84395000D02*
X156270000Y-84395000D01*
X151130000Y-89595000D02*
X156270000Y-89595000D01*
X156270000Y-89595000D02*
X156270000Y-84395000D01*
X145798000Y-85308221D02*
X145798000Y-85633779D01*
X144778000Y-85308221D02*
X144778000Y-85633779D01*
X144020000Y-85633779D02*
X144020000Y-85308221D01*
X143000000Y-85633779D02*
X143000000Y-85308221D01*
X146556000Y-95158779D02*
X146556000Y-94833221D01*
X147576000Y-95158779D02*
X147576000Y-94833221D01*
X147576000Y-91983779D02*
X147576000Y-91658221D01*
X146556000Y-91983779D02*
X146556000Y-91658221D01*
X146556000Y-88808779D02*
X146556000Y-88483221D01*
X147576000Y-88808779D02*
X147576000Y-88483221D01*
X147576000Y-85633779D02*
X147576000Y-85308221D01*
X146556000Y-85633779D02*
X146556000Y-85308221D01*
D11*
X137071666Y-95527380D02*
X137071666Y-96241666D01*
X137024047Y-96384523D01*
X136928809Y-96479761D01*
X136785952Y-96527380D01*
X136690714Y-96527380D01*
X137500238Y-95622619D02*
X137547857Y-95575000D01*
X137643095Y-95527380D01*
X137881190Y-95527380D01*
X137976428Y-95575000D01*
X138024047Y-95622619D01*
X138071666Y-95717857D01*
X138071666Y-95813095D01*
X138024047Y-95955952D01*
X137452619Y-96527380D01*
X138071666Y-96527380D01*
M02*
