G04 #@! TF.GenerationSoftware,KiCad,Pcbnew,(5.1.5)-3*
G04 #@! TF.CreationDate,2020-03-24T14:08:44+01:00*
G04 #@! TF.ProjectId,RiserBoard,52697365-7242-46f6-9172-642e6b696361,v0.0*
G04 #@! TF.SameCoordinates,Original*
G04 #@! TF.FileFunction,Soldermask,Bot*
G04 #@! TF.FilePolarity,Negative*
%FSLAX46Y46*%
G04 Gerber Fmt 4.6, Leading zero omitted, Abs format (unit mm)*
G04 Created by KiCad (PCBNEW (5.1.5)-3) date 2020-03-24 14:08:44*
%MOMM*%
%LPD*%
G04 APERTURE LIST*
%ADD10C,0.100000*%
G04 APERTURE END LIST*
D10*
G36*
X155206000Y-95516000D02*
G01*
X153404000Y-95516000D01*
X153404000Y-93714000D01*
X155206000Y-93714000D01*
X155206000Y-95516000D01*
G37*
G36*
X159498512Y-93718927D02*
G01*
X159647812Y-93748624D01*
X159811784Y-93816544D01*
X159959354Y-93915147D01*
X160084853Y-94040646D01*
X160183456Y-94188216D01*
X160251376Y-94352188D01*
X160286000Y-94526259D01*
X160286000Y-94703741D01*
X160251376Y-94877812D01*
X160183456Y-95041784D01*
X160084853Y-95189354D01*
X159959354Y-95314853D01*
X159811784Y-95413456D01*
X159647812Y-95481376D01*
X159498512Y-95511073D01*
X159473742Y-95516000D01*
X159296258Y-95516000D01*
X159271488Y-95511073D01*
X159122188Y-95481376D01*
X158958216Y-95413456D01*
X158810646Y-95314853D01*
X158685147Y-95189354D01*
X158586544Y-95041784D01*
X158518624Y-94877812D01*
X158484000Y-94703741D01*
X158484000Y-94526259D01*
X158518624Y-94352188D01*
X158586544Y-94188216D01*
X158685147Y-94040646D01*
X158810646Y-93915147D01*
X158958216Y-93816544D01*
X159122188Y-93748624D01*
X159271488Y-93718927D01*
X159296258Y-93714000D01*
X159473742Y-93714000D01*
X159498512Y-93718927D01*
G37*
G36*
X156958512Y-93718927D02*
G01*
X157107812Y-93748624D01*
X157271784Y-93816544D01*
X157419354Y-93915147D01*
X157544853Y-94040646D01*
X157643456Y-94188216D01*
X157711376Y-94352188D01*
X157746000Y-94526259D01*
X157746000Y-94703741D01*
X157711376Y-94877812D01*
X157643456Y-95041784D01*
X157544853Y-95189354D01*
X157419354Y-95314853D01*
X157271784Y-95413456D01*
X157107812Y-95481376D01*
X156958512Y-95511073D01*
X156933742Y-95516000D01*
X156756258Y-95516000D01*
X156731488Y-95511073D01*
X156582188Y-95481376D01*
X156418216Y-95413456D01*
X156270646Y-95314853D01*
X156145147Y-95189354D01*
X156046544Y-95041784D01*
X155978624Y-94877812D01*
X155944000Y-94703741D01*
X155944000Y-94526259D01*
X155978624Y-94352188D01*
X156046544Y-94188216D01*
X156145147Y-94040646D01*
X156270646Y-93915147D01*
X156418216Y-93816544D01*
X156582188Y-93748624D01*
X156731488Y-93718927D01*
X156756258Y-93714000D01*
X156933742Y-93714000D01*
X156958512Y-93718927D01*
G37*
G36*
X148965256Y-91736298D02*
G01*
X149071579Y-91757447D01*
X149372042Y-91881903D01*
X149642451Y-92062585D01*
X149872415Y-92292549D01*
X150053097Y-92562958D01*
X150177553Y-92863421D01*
X150241000Y-93182391D01*
X150241000Y-93507609D01*
X150177553Y-93826579D01*
X150053097Y-94127042D01*
X149872415Y-94397451D01*
X149642451Y-94627415D01*
X149372042Y-94808097D01*
X149071579Y-94932553D01*
X148965256Y-94953702D01*
X148752611Y-94996000D01*
X148427389Y-94996000D01*
X148214744Y-94953702D01*
X148108421Y-94932553D01*
X147807958Y-94808097D01*
X147537549Y-94627415D01*
X147307585Y-94397451D01*
X147126903Y-94127042D01*
X147002447Y-93826579D01*
X146939000Y-93507609D01*
X146939000Y-93182391D01*
X147002447Y-92863421D01*
X147126903Y-92562958D01*
X147307585Y-92292549D01*
X147537549Y-92062585D01*
X147807958Y-91881903D01*
X148108421Y-91757447D01*
X148214744Y-91736298D01*
X148427389Y-91694000D01*
X148752611Y-91694000D01*
X148965256Y-91736298D01*
G37*
G36*
X159498512Y-91178927D02*
G01*
X159647812Y-91208624D01*
X159811784Y-91276544D01*
X159959354Y-91375147D01*
X160084853Y-91500646D01*
X160183456Y-91648216D01*
X160251376Y-91812188D01*
X160286000Y-91986259D01*
X160286000Y-92163741D01*
X160251376Y-92337812D01*
X160183456Y-92501784D01*
X160084853Y-92649354D01*
X159959354Y-92774853D01*
X159811784Y-92873456D01*
X159647812Y-92941376D01*
X159498512Y-92971073D01*
X159473742Y-92976000D01*
X159296258Y-92976000D01*
X159271488Y-92971073D01*
X159122188Y-92941376D01*
X158958216Y-92873456D01*
X158810646Y-92774853D01*
X158685147Y-92649354D01*
X158586544Y-92501784D01*
X158518624Y-92337812D01*
X158484000Y-92163741D01*
X158484000Y-91986259D01*
X158518624Y-91812188D01*
X158586544Y-91648216D01*
X158685147Y-91500646D01*
X158810646Y-91375147D01*
X158958216Y-91276544D01*
X159122188Y-91208624D01*
X159271488Y-91178927D01*
X159296258Y-91174000D01*
X159473742Y-91174000D01*
X159498512Y-91178927D01*
G37*
G36*
X156958512Y-91178927D02*
G01*
X157107812Y-91208624D01*
X157271784Y-91276544D01*
X157419354Y-91375147D01*
X157544853Y-91500646D01*
X157643456Y-91648216D01*
X157711376Y-91812188D01*
X157746000Y-91986259D01*
X157746000Y-92163741D01*
X157711376Y-92337812D01*
X157643456Y-92501784D01*
X157544853Y-92649354D01*
X157419354Y-92774853D01*
X157271784Y-92873456D01*
X157107812Y-92941376D01*
X156958512Y-92971073D01*
X156933742Y-92976000D01*
X156756258Y-92976000D01*
X156731488Y-92971073D01*
X156582188Y-92941376D01*
X156418216Y-92873456D01*
X156270646Y-92774853D01*
X156145147Y-92649354D01*
X156046544Y-92501784D01*
X155978624Y-92337812D01*
X155944000Y-92163741D01*
X155944000Y-91986259D01*
X155978624Y-91812188D01*
X156046544Y-91648216D01*
X156145147Y-91500646D01*
X156270646Y-91375147D01*
X156418216Y-91276544D01*
X156582188Y-91208624D01*
X156731488Y-91178927D01*
X156756258Y-91174000D01*
X156933742Y-91174000D01*
X156958512Y-91178927D01*
G37*
G36*
X154418512Y-91178927D02*
G01*
X154567812Y-91208624D01*
X154731784Y-91276544D01*
X154879354Y-91375147D01*
X155004853Y-91500646D01*
X155103456Y-91648216D01*
X155171376Y-91812188D01*
X155206000Y-91986259D01*
X155206000Y-92163741D01*
X155171376Y-92337812D01*
X155103456Y-92501784D01*
X155004853Y-92649354D01*
X154879354Y-92774853D01*
X154731784Y-92873456D01*
X154567812Y-92941376D01*
X154418512Y-92971073D01*
X154393742Y-92976000D01*
X154216258Y-92976000D01*
X154191488Y-92971073D01*
X154042188Y-92941376D01*
X153878216Y-92873456D01*
X153730646Y-92774853D01*
X153605147Y-92649354D01*
X153506544Y-92501784D01*
X153438624Y-92337812D01*
X153404000Y-92163741D01*
X153404000Y-91986259D01*
X153438624Y-91812188D01*
X153506544Y-91648216D01*
X153605147Y-91500646D01*
X153730646Y-91375147D01*
X153878216Y-91276544D01*
X154042188Y-91208624D01*
X154191488Y-91178927D01*
X154216258Y-91174000D01*
X154393742Y-91174000D01*
X154418512Y-91178927D01*
G37*
G36*
X130142395Y-90891046D02*
G01*
X130315466Y-90962734D01*
X130315467Y-90962735D01*
X130471227Y-91066810D01*
X130603690Y-91199273D01*
X130655321Y-91276544D01*
X130707766Y-91355034D01*
X130779454Y-91528105D01*
X130816000Y-91711833D01*
X130816000Y-91899167D01*
X130779454Y-92082895D01*
X130707766Y-92255966D01*
X130656081Y-92333318D01*
X130603690Y-92411727D01*
X130471227Y-92544190D01*
X130392818Y-92596581D01*
X130315466Y-92648266D01*
X130142395Y-92719954D01*
X129958667Y-92756500D01*
X129771333Y-92756500D01*
X129587605Y-92719954D01*
X129414534Y-92648266D01*
X129337182Y-92596581D01*
X129258773Y-92544190D01*
X129126310Y-92411727D01*
X129073919Y-92333318D01*
X129022234Y-92255966D01*
X128950546Y-92082895D01*
X128914000Y-91899167D01*
X128914000Y-91711833D01*
X128950546Y-91528105D01*
X129022234Y-91355034D01*
X129074679Y-91276544D01*
X129126310Y-91199273D01*
X129258773Y-91066810D01*
X129414533Y-90962735D01*
X129414534Y-90962734D01*
X129587605Y-90891046D01*
X129771333Y-90854500D01*
X129958667Y-90854500D01*
X130142395Y-90891046D01*
G37*
G36*
X137142395Y-90891046D02*
G01*
X137315466Y-90962734D01*
X137315467Y-90962735D01*
X137471227Y-91066810D01*
X137603690Y-91199273D01*
X137655321Y-91276544D01*
X137707766Y-91355034D01*
X137779454Y-91528105D01*
X137816000Y-91711833D01*
X137816000Y-91899167D01*
X137779454Y-92082895D01*
X137707766Y-92255966D01*
X137656081Y-92333318D01*
X137603690Y-92411727D01*
X137471227Y-92544190D01*
X137392818Y-92596581D01*
X137315466Y-92648266D01*
X137142395Y-92719954D01*
X136958667Y-92756500D01*
X136771333Y-92756500D01*
X136587605Y-92719954D01*
X136414534Y-92648266D01*
X136337182Y-92596581D01*
X136258773Y-92544190D01*
X136126310Y-92411727D01*
X136073919Y-92333318D01*
X136022234Y-92255966D01*
X135950546Y-92082895D01*
X135914000Y-91899167D01*
X135914000Y-91711833D01*
X135950546Y-91528105D01*
X136022234Y-91355034D01*
X136074679Y-91276544D01*
X136126310Y-91199273D01*
X136258773Y-91066810D01*
X136414533Y-90962735D01*
X136414534Y-90962734D01*
X136587605Y-90891046D01*
X136771333Y-90854500D01*
X136958667Y-90854500D01*
X137142395Y-90891046D01*
G37*
G36*
X155206000Y-89166000D02*
G01*
X153404000Y-89166000D01*
X153404000Y-87364000D01*
X155206000Y-87364000D01*
X155206000Y-89166000D01*
G37*
G36*
X156958512Y-87368927D02*
G01*
X157107812Y-87398624D01*
X157271784Y-87466544D01*
X157419354Y-87565147D01*
X157544853Y-87690646D01*
X157643456Y-87838216D01*
X157711376Y-88002188D01*
X157746000Y-88176259D01*
X157746000Y-88353741D01*
X157711376Y-88527812D01*
X157643456Y-88691784D01*
X157544853Y-88839354D01*
X157419354Y-88964853D01*
X157271784Y-89063456D01*
X157107812Y-89131376D01*
X156958512Y-89161073D01*
X156933742Y-89166000D01*
X156756258Y-89166000D01*
X156731488Y-89161073D01*
X156582188Y-89131376D01*
X156418216Y-89063456D01*
X156270646Y-88964853D01*
X156145147Y-88839354D01*
X156046544Y-88691784D01*
X155978624Y-88527812D01*
X155944000Y-88353741D01*
X155944000Y-88176259D01*
X155978624Y-88002188D01*
X156046544Y-87838216D01*
X156145147Y-87690646D01*
X156270646Y-87565147D01*
X156418216Y-87466544D01*
X156582188Y-87398624D01*
X156731488Y-87368927D01*
X156756258Y-87364000D01*
X156933742Y-87364000D01*
X156958512Y-87368927D01*
G37*
G36*
X159498512Y-87368927D02*
G01*
X159647812Y-87398624D01*
X159811784Y-87466544D01*
X159959354Y-87565147D01*
X160084853Y-87690646D01*
X160183456Y-87838216D01*
X160251376Y-88002188D01*
X160286000Y-88176259D01*
X160286000Y-88353741D01*
X160251376Y-88527812D01*
X160183456Y-88691784D01*
X160084853Y-88839354D01*
X159959354Y-88964853D01*
X159811784Y-89063456D01*
X159647812Y-89131376D01*
X159498512Y-89161073D01*
X159473742Y-89166000D01*
X159296258Y-89166000D01*
X159271488Y-89161073D01*
X159122188Y-89131376D01*
X158958216Y-89063456D01*
X158810646Y-88964853D01*
X158685147Y-88839354D01*
X158586544Y-88691784D01*
X158518624Y-88527812D01*
X158484000Y-88353741D01*
X158484000Y-88176259D01*
X158518624Y-88002188D01*
X158586544Y-87838216D01*
X158685147Y-87690646D01*
X158810646Y-87565147D01*
X158958216Y-87466544D01*
X159122188Y-87398624D01*
X159271488Y-87368927D01*
X159296258Y-87364000D01*
X159473742Y-87364000D01*
X159498512Y-87368927D01*
G37*
G36*
X144004591Y-87108085D02*
G01*
X144038569Y-87118393D01*
X144069890Y-87135134D01*
X144097339Y-87157661D01*
X144119866Y-87185110D01*
X144136607Y-87216431D01*
X144146915Y-87250409D01*
X144151000Y-87291890D01*
X144151000Y-87968110D01*
X144146915Y-88009591D01*
X144136607Y-88043569D01*
X144119866Y-88074890D01*
X144097339Y-88102339D01*
X144069890Y-88124866D01*
X144038569Y-88141607D01*
X144004591Y-88151915D01*
X143963110Y-88156000D01*
X143361890Y-88156000D01*
X143320409Y-88151915D01*
X143286431Y-88141607D01*
X143255110Y-88124866D01*
X143227661Y-88102339D01*
X143205134Y-88074890D01*
X143188393Y-88043569D01*
X143178085Y-88009591D01*
X143174000Y-87968110D01*
X143174000Y-87291890D01*
X143178085Y-87250409D01*
X143188393Y-87216431D01*
X143205134Y-87185110D01*
X143227661Y-87157661D01*
X143255110Y-87135134D01*
X143286431Y-87118393D01*
X143320409Y-87108085D01*
X143361890Y-87104000D01*
X143963110Y-87104000D01*
X144004591Y-87108085D01*
G37*
G36*
X142429591Y-87108085D02*
G01*
X142463569Y-87118393D01*
X142494890Y-87135134D01*
X142522339Y-87157661D01*
X142544866Y-87185110D01*
X142561607Y-87216431D01*
X142571915Y-87250409D01*
X142576000Y-87291890D01*
X142576000Y-87968110D01*
X142571915Y-88009591D01*
X142561607Y-88043569D01*
X142544866Y-88074890D01*
X142522339Y-88102339D01*
X142494890Y-88124866D01*
X142463569Y-88141607D01*
X142429591Y-88151915D01*
X142388110Y-88156000D01*
X141786890Y-88156000D01*
X141745409Y-88151915D01*
X141711431Y-88141607D01*
X141680110Y-88124866D01*
X141652661Y-88102339D01*
X141630134Y-88074890D01*
X141613393Y-88043569D01*
X141603085Y-88009591D01*
X141599000Y-87968110D01*
X141599000Y-87291890D01*
X141603085Y-87250409D01*
X141613393Y-87216431D01*
X141630134Y-87185110D01*
X141652661Y-87157661D01*
X141680110Y-87135134D01*
X141711431Y-87118393D01*
X141745409Y-87108085D01*
X141786890Y-87104000D01*
X142388110Y-87104000D01*
X142429591Y-87108085D01*
G37*
G36*
X159498512Y-84828927D02*
G01*
X159647812Y-84858624D01*
X159811784Y-84926544D01*
X159959354Y-85025147D01*
X160084853Y-85150646D01*
X160183456Y-85298216D01*
X160251376Y-85462188D01*
X160286000Y-85636259D01*
X160286000Y-85813741D01*
X160251376Y-85987812D01*
X160183456Y-86151784D01*
X160084853Y-86299354D01*
X159959354Y-86424853D01*
X159811784Y-86523456D01*
X159647812Y-86591376D01*
X159498512Y-86621073D01*
X159473742Y-86626000D01*
X159296258Y-86626000D01*
X159271488Y-86621073D01*
X159122188Y-86591376D01*
X158958216Y-86523456D01*
X158810646Y-86424853D01*
X158685147Y-86299354D01*
X158586544Y-86151784D01*
X158518624Y-85987812D01*
X158484000Y-85813741D01*
X158484000Y-85636259D01*
X158518624Y-85462188D01*
X158586544Y-85298216D01*
X158685147Y-85150646D01*
X158810646Y-85025147D01*
X158958216Y-84926544D01*
X159122188Y-84858624D01*
X159271488Y-84828927D01*
X159296258Y-84824000D01*
X159473742Y-84824000D01*
X159498512Y-84828927D01*
G37*
G36*
X156958512Y-84828927D02*
G01*
X157107812Y-84858624D01*
X157271784Y-84926544D01*
X157419354Y-85025147D01*
X157544853Y-85150646D01*
X157643456Y-85298216D01*
X157711376Y-85462188D01*
X157746000Y-85636259D01*
X157746000Y-85813741D01*
X157711376Y-85987812D01*
X157643456Y-86151784D01*
X157544853Y-86299354D01*
X157419354Y-86424853D01*
X157271784Y-86523456D01*
X157107812Y-86591376D01*
X156958512Y-86621073D01*
X156933742Y-86626000D01*
X156756258Y-86626000D01*
X156731488Y-86621073D01*
X156582188Y-86591376D01*
X156418216Y-86523456D01*
X156270646Y-86424853D01*
X156145147Y-86299354D01*
X156046544Y-86151784D01*
X155978624Y-85987812D01*
X155944000Y-85813741D01*
X155944000Y-85636259D01*
X155978624Y-85462188D01*
X156046544Y-85298216D01*
X156145147Y-85150646D01*
X156270646Y-85025147D01*
X156418216Y-84926544D01*
X156582188Y-84858624D01*
X156731488Y-84828927D01*
X156756258Y-84824000D01*
X156933742Y-84824000D01*
X156958512Y-84828927D01*
G37*
G36*
X154418512Y-84828927D02*
G01*
X154567812Y-84858624D01*
X154731784Y-84926544D01*
X154879354Y-85025147D01*
X155004853Y-85150646D01*
X155103456Y-85298216D01*
X155171376Y-85462188D01*
X155206000Y-85636259D01*
X155206000Y-85813741D01*
X155171376Y-85987812D01*
X155103456Y-86151784D01*
X155004853Y-86299354D01*
X154879354Y-86424853D01*
X154731784Y-86523456D01*
X154567812Y-86591376D01*
X154418512Y-86621073D01*
X154393742Y-86626000D01*
X154216258Y-86626000D01*
X154191488Y-86621073D01*
X154042188Y-86591376D01*
X153878216Y-86523456D01*
X153730646Y-86424853D01*
X153605147Y-86299354D01*
X153506544Y-86151784D01*
X153438624Y-85987812D01*
X153404000Y-85813741D01*
X153404000Y-85636259D01*
X153438624Y-85462188D01*
X153506544Y-85298216D01*
X153605147Y-85150646D01*
X153730646Y-85025147D01*
X153878216Y-84926544D01*
X154042188Y-84858624D01*
X154191488Y-84828927D01*
X154216258Y-84824000D01*
X154393742Y-84824000D01*
X154418512Y-84828927D01*
G37*
M02*
