G04 #@! TF.GenerationSoftware,KiCad,Pcbnew,(5.1.5)-3*
G04 #@! TF.CreationDate,2020-05-24T20:06:03+02:00*
G04 #@! TF.ProjectId,RiserBoard,52697365-7242-46f6-9172-642e6b696361,v0.1*
G04 #@! TF.SameCoordinates,Original*
G04 #@! TF.FileFunction,Copper,L1,Top*
G04 #@! TF.FilePolarity,Positive*
%FSLAX46Y46*%
G04 Gerber Fmt 4.6, Leading zero omitted, Abs format (unit mm)*
G04 Created by KiCad (PCBNEW (5.1.5)-3) date 2020-05-24 20:06:03*
%MOMM*%
%LPD*%
G04 APERTURE LIST*
%ADD10R,1.500000X1.500000*%
%ADD11R,1.700000X1.700000*%
%ADD12O,1.700000X1.700000*%
%ADD13C,0.100000*%
%ADD14C,0.250000*%
G04 APERTURE END LIST*
D10*
X134605000Y-88825000D03*
X134605000Y-95325000D03*
X131405000Y-88825000D03*
X131405000Y-95325000D03*
X128205000Y-88825000D03*
X128205000Y-95325000D03*
D11*
X149860000Y-94615000D03*
D12*
X149860000Y-92075000D03*
X152400000Y-94615000D03*
X152400000Y-92075000D03*
X154940000Y-94615000D03*
X154940000Y-92075000D03*
X154940000Y-85725000D03*
X154940000Y-88265000D03*
X152400000Y-85725000D03*
X152400000Y-88265000D03*
X149860000Y-85725000D03*
D11*
X149860000Y-88265000D03*
G04 #@! TA.AperFunction,SMDPad,CuDef*
D13*
G36*
X146327691Y-85441053D02*
G01*
X146348926Y-85444203D01*
X146369750Y-85449419D01*
X146389962Y-85456651D01*
X146409368Y-85465830D01*
X146427781Y-85476866D01*
X146445024Y-85489654D01*
X146460930Y-85504070D01*
X146475346Y-85519976D01*
X146488134Y-85537219D01*
X146499170Y-85555632D01*
X146508349Y-85575038D01*
X146515581Y-85595250D01*
X146520797Y-85616074D01*
X146523947Y-85637309D01*
X146525000Y-85658750D01*
X146525000Y-86096250D01*
X146523947Y-86117691D01*
X146520797Y-86138926D01*
X146515581Y-86159750D01*
X146508349Y-86179962D01*
X146499170Y-86199368D01*
X146488134Y-86217781D01*
X146475346Y-86235024D01*
X146460930Y-86250930D01*
X146445024Y-86265346D01*
X146427781Y-86278134D01*
X146409368Y-86289170D01*
X146389962Y-86298349D01*
X146369750Y-86305581D01*
X146348926Y-86310797D01*
X146327691Y-86313947D01*
X146306250Y-86315000D01*
X145793750Y-86315000D01*
X145772309Y-86313947D01*
X145751074Y-86310797D01*
X145730250Y-86305581D01*
X145710038Y-86298349D01*
X145690632Y-86289170D01*
X145672219Y-86278134D01*
X145654976Y-86265346D01*
X145639070Y-86250930D01*
X145624654Y-86235024D01*
X145611866Y-86217781D01*
X145600830Y-86199368D01*
X145591651Y-86179962D01*
X145584419Y-86159750D01*
X145579203Y-86138926D01*
X145576053Y-86117691D01*
X145575000Y-86096250D01*
X145575000Y-85658750D01*
X145576053Y-85637309D01*
X145579203Y-85616074D01*
X145584419Y-85595250D01*
X145591651Y-85575038D01*
X145600830Y-85555632D01*
X145611866Y-85537219D01*
X145624654Y-85519976D01*
X145639070Y-85504070D01*
X145654976Y-85489654D01*
X145672219Y-85476866D01*
X145690632Y-85465830D01*
X145710038Y-85456651D01*
X145730250Y-85449419D01*
X145751074Y-85444203D01*
X145772309Y-85441053D01*
X145793750Y-85440000D01*
X146306250Y-85440000D01*
X146327691Y-85441053D01*
G37*
G04 #@! TD.AperFunction*
G04 #@! TA.AperFunction,SMDPad,CuDef*
G36*
X146327691Y-83866053D02*
G01*
X146348926Y-83869203D01*
X146369750Y-83874419D01*
X146389962Y-83881651D01*
X146409368Y-83890830D01*
X146427781Y-83901866D01*
X146445024Y-83914654D01*
X146460930Y-83929070D01*
X146475346Y-83944976D01*
X146488134Y-83962219D01*
X146499170Y-83980632D01*
X146508349Y-84000038D01*
X146515581Y-84020250D01*
X146520797Y-84041074D01*
X146523947Y-84062309D01*
X146525000Y-84083750D01*
X146525000Y-84521250D01*
X146523947Y-84542691D01*
X146520797Y-84563926D01*
X146515581Y-84584750D01*
X146508349Y-84604962D01*
X146499170Y-84624368D01*
X146488134Y-84642781D01*
X146475346Y-84660024D01*
X146460930Y-84675930D01*
X146445024Y-84690346D01*
X146427781Y-84703134D01*
X146409368Y-84714170D01*
X146389962Y-84723349D01*
X146369750Y-84730581D01*
X146348926Y-84735797D01*
X146327691Y-84738947D01*
X146306250Y-84740000D01*
X145793750Y-84740000D01*
X145772309Y-84738947D01*
X145751074Y-84735797D01*
X145730250Y-84730581D01*
X145710038Y-84723349D01*
X145690632Y-84714170D01*
X145672219Y-84703134D01*
X145654976Y-84690346D01*
X145639070Y-84675930D01*
X145624654Y-84660024D01*
X145611866Y-84642781D01*
X145600830Y-84624368D01*
X145591651Y-84604962D01*
X145584419Y-84584750D01*
X145579203Y-84563926D01*
X145576053Y-84542691D01*
X145575000Y-84521250D01*
X145575000Y-84083750D01*
X145576053Y-84062309D01*
X145579203Y-84041074D01*
X145584419Y-84020250D01*
X145591651Y-84000038D01*
X145600830Y-83980632D01*
X145611866Y-83962219D01*
X145624654Y-83944976D01*
X145639070Y-83929070D01*
X145654976Y-83914654D01*
X145672219Y-83901866D01*
X145690632Y-83890830D01*
X145710038Y-83881651D01*
X145730250Y-83874419D01*
X145751074Y-83869203D01*
X145772309Y-83866053D01*
X145793750Y-83865000D01*
X146306250Y-83865000D01*
X146327691Y-83866053D01*
G37*
G04 #@! TD.AperFunction*
G04 #@! TA.AperFunction,SMDPad,CuDef*
G36*
X144422691Y-85441053D02*
G01*
X144443926Y-85444203D01*
X144464750Y-85449419D01*
X144484962Y-85456651D01*
X144504368Y-85465830D01*
X144522781Y-85476866D01*
X144540024Y-85489654D01*
X144555930Y-85504070D01*
X144570346Y-85519976D01*
X144583134Y-85537219D01*
X144594170Y-85555632D01*
X144603349Y-85575038D01*
X144610581Y-85595250D01*
X144615797Y-85616074D01*
X144618947Y-85637309D01*
X144620000Y-85658750D01*
X144620000Y-86096250D01*
X144618947Y-86117691D01*
X144615797Y-86138926D01*
X144610581Y-86159750D01*
X144603349Y-86179962D01*
X144594170Y-86199368D01*
X144583134Y-86217781D01*
X144570346Y-86235024D01*
X144555930Y-86250930D01*
X144540024Y-86265346D01*
X144522781Y-86278134D01*
X144504368Y-86289170D01*
X144484962Y-86298349D01*
X144464750Y-86305581D01*
X144443926Y-86310797D01*
X144422691Y-86313947D01*
X144401250Y-86315000D01*
X143888750Y-86315000D01*
X143867309Y-86313947D01*
X143846074Y-86310797D01*
X143825250Y-86305581D01*
X143805038Y-86298349D01*
X143785632Y-86289170D01*
X143767219Y-86278134D01*
X143749976Y-86265346D01*
X143734070Y-86250930D01*
X143719654Y-86235024D01*
X143706866Y-86217781D01*
X143695830Y-86199368D01*
X143686651Y-86179962D01*
X143679419Y-86159750D01*
X143674203Y-86138926D01*
X143671053Y-86117691D01*
X143670000Y-86096250D01*
X143670000Y-85658750D01*
X143671053Y-85637309D01*
X143674203Y-85616074D01*
X143679419Y-85595250D01*
X143686651Y-85575038D01*
X143695830Y-85555632D01*
X143706866Y-85537219D01*
X143719654Y-85519976D01*
X143734070Y-85504070D01*
X143749976Y-85489654D01*
X143767219Y-85476866D01*
X143785632Y-85465830D01*
X143805038Y-85456651D01*
X143825250Y-85449419D01*
X143846074Y-85444203D01*
X143867309Y-85441053D01*
X143888750Y-85440000D01*
X144401250Y-85440000D01*
X144422691Y-85441053D01*
G37*
G04 #@! TD.AperFunction*
G04 #@! TA.AperFunction,SMDPad,CuDef*
G36*
X144422691Y-83866053D02*
G01*
X144443926Y-83869203D01*
X144464750Y-83874419D01*
X144484962Y-83881651D01*
X144504368Y-83890830D01*
X144522781Y-83901866D01*
X144540024Y-83914654D01*
X144555930Y-83929070D01*
X144570346Y-83944976D01*
X144583134Y-83962219D01*
X144594170Y-83980632D01*
X144603349Y-84000038D01*
X144610581Y-84020250D01*
X144615797Y-84041074D01*
X144618947Y-84062309D01*
X144620000Y-84083750D01*
X144620000Y-84521250D01*
X144618947Y-84542691D01*
X144615797Y-84563926D01*
X144610581Y-84584750D01*
X144603349Y-84604962D01*
X144594170Y-84624368D01*
X144583134Y-84642781D01*
X144570346Y-84660024D01*
X144555930Y-84675930D01*
X144540024Y-84690346D01*
X144522781Y-84703134D01*
X144504368Y-84714170D01*
X144484962Y-84723349D01*
X144464750Y-84730581D01*
X144443926Y-84735797D01*
X144422691Y-84738947D01*
X144401250Y-84740000D01*
X143888750Y-84740000D01*
X143867309Y-84738947D01*
X143846074Y-84735797D01*
X143825250Y-84730581D01*
X143805038Y-84723349D01*
X143785632Y-84714170D01*
X143767219Y-84703134D01*
X143749976Y-84690346D01*
X143734070Y-84675930D01*
X143719654Y-84660024D01*
X143706866Y-84642781D01*
X143695830Y-84624368D01*
X143686651Y-84604962D01*
X143679419Y-84584750D01*
X143674203Y-84563926D01*
X143671053Y-84542691D01*
X143670000Y-84521250D01*
X143670000Y-84083750D01*
X143671053Y-84062309D01*
X143674203Y-84041074D01*
X143679419Y-84020250D01*
X143686651Y-84000038D01*
X143695830Y-83980632D01*
X143706866Y-83962219D01*
X143719654Y-83944976D01*
X143734070Y-83929070D01*
X143749976Y-83914654D01*
X143767219Y-83901866D01*
X143785632Y-83890830D01*
X143805038Y-83881651D01*
X143825250Y-83874419D01*
X143846074Y-83869203D01*
X143867309Y-83866053D01*
X143888750Y-83865000D01*
X144401250Y-83865000D01*
X144422691Y-83866053D01*
G37*
G04 #@! TD.AperFunction*
G04 #@! TA.AperFunction,SMDPad,CuDef*
G36*
X139977691Y-95601053D02*
G01*
X139998926Y-95604203D01*
X140019750Y-95609419D01*
X140039962Y-95616651D01*
X140059368Y-95625830D01*
X140077781Y-95636866D01*
X140095024Y-95649654D01*
X140110930Y-95664070D01*
X140125346Y-95679976D01*
X140138134Y-95697219D01*
X140149170Y-95715632D01*
X140158349Y-95735038D01*
X140165581Y-95755250D01*
X140170797Y-95776074D01*
X140173947Y-95797309D01*
X140175000Y-95818750D01*
X140175000Y-96256250D01*
X140173947Y-96277691D01*
X140170797Y-96298926D01*
X140165581Y-96319750D01*
X140158349Y-96339962D01*
X140149170Y-96359368D01*
X140138134Y-96377781D01*
X140125346Y-96395024D01*
X140110930Y-96410930D01*
X140095024Y-96425346D01*
X140077781Y-96438134D01*
X140059368Y-96449170D01*
X140039962Y-96458349D01*
X140019750Y-96465581D01*
X139998926Y-96470797D01*
X139977691Y-96473947D01*
X139956250Y-96475000D01*
X139443750Y-96475000D01*
X139422309Y-96473947D01*
X139401074Y-96470797D01*
X139380250Y-96465581D01*
X139360038Y-96458349D01*
X139340632Y-96449170D01*
X139322219Y-96438134D01*
X139304976Y-96425346D01*
X139289070Y-96410930D01*
X139274654Y-96395024D01*
X139261866Y-96377781D01*
X139250830Y-96359368D01*
X139241651Y-96339962D01*
X139234419Y-96319750D01*
X139229203Y-96298926D01*
X139226053Y-96277691D01*
X139225000Y-96256250D01*
X139225000Y-95818750D01*
X139226053Y-95797309D01*
X139229203Y-95776074D01*
X139234419Y-95755250D01*
X139241651Y-95735038D01*
X139250830Y-95715632D01*
X139261866Y-95697219D01*
X139274654Y-95679976D01*
X139289070Y-95664070D01*
X139304976Y-95649654D01*
X139322219Y-95636866D01*
X139340632Y-95625830D01*
X139360038Y-95616651D01*
X139380250Y-95609419D01*
X139401074Y-95604203D01*
X139422309Y-95601053D01*
X139443750Y-95600000D01*
X139956250Y-95600000D01*
X139977691Y-95601053D01*
G37*
G04 #@! TD.AperFunction*
G04 #@! TA.AperFunction,SMDPad,CuDef*
G36*
X139977691Y-94026053D02*
G01*
X139998926Y-94029203D01*
X140019750Y-94034419D01*
X140039962Y-94041651D01*
X140059368Y-94050830D01*
X140077781Y-94061866D01*
X140095024Y-94074654D01*
X140110930Y-94089070D01*
X140125346Y-94104976D01*
X140138134Y-94122219D01*
X140149170Y-94140632D01*
X140158349Y-94160038D01*
X140165581Y-94180250D01*
X140170797Y-94201074D01*
X140173947Y-94222309D01*
X140175000Y-94243750D01*
X140175000Y-94681250D01*
X140173947Y-94702691D01*
X140170797Y-94723926D01*
X140165581Y-94744750D01*
X140158349Y-94764962D01*
X140149170Y-94784368D01*
X140138134Y-94802781D01*
X140125346Y-94820024D01*
X140110930Y-94835930D01*
X140095024Y-94850346D01*
X140077781Y-94863134D01*
X140059368Y-94874170D01*
X140039962Y-94883349D01*
X140019750Y-94890581D01*
X139998926Y-94895797D01*
X139977691Y-94898947D01*
X139956250Y-94900000D01*
X139443750Y-94900000D01*
X139422309Y-94898947D01*
X139401074Y-94895797D01*
X139380250Y-94890581D01*
X139360038Y-94883349D01*
X139340632Y-94874170D01*
X139322219Y-94863134D01*
X139304976Y-94850346D01*
X139289070Y-94835930D01*
X139274654Y-94820024D01*
X139261866Y-94802781D01*
X139250830Y-94784368D01*
X139241651Y-94764962D01*
X139234419Y-94744750D01*
X139229203Y-94723926D01*
X139226053Y-94702691D01*
X139225000Y-94681250D01*
X139225000Y-94243750D01*
X139226053Y-94222309D01*
X139229203Y-94201074D01*
X139234419Y-94180250D01*
X139241651Y-94160038D01*
X139250830Y-94140632D01*
X139261866Y-94122219D01*
X139274654Y-94104976D01*
X139289070Y-94089070D01*
X139304976Y-94074654D01*
X139322219Y-94061866D01*
X139340632Y-94050830D01*
X139360038Y-94041651D01*
X139380250Y-94034419D01*
X139401074Y-94029203D01*
X139422309Y-94026053D01*
X139443750Y-94025000D01*
X139956250Y-94025000D01*
X139977691Y-94026053D01*
G37*
G04 #@! TD.AperFunction*
G04 #@! TA.AperFunction,SMDPad,CuDef*
G36*
X139977691Y-90851053D02*
G01*
X139998926Y-90854203D01*
X140019750Y-90859419D01*
X140039962Y-90866651D01*
X140059368Y-90875830D01*
X140077781Y-90886866D01*
X140095024Y-90899654D01*
X140110930Y-90914070D01*
X140125346Y-90929976D01*
X140138134Y-90947219D01*
X140149170Y-90965632D01*
X140158349Y-90985038D01*
X140165581Y-91005250D01*
X140170797Y-91026074D01*
X140173947Y-91047309D01*
X140175000Y-91068750D01*
X140175000Y-91506250D01*
X140173947Y-91527691D01*
X140170797Y-91548926D01*
X140165581Y-91569750D01*
X140158349Y-91589962D01*
X140149170Y-91609368D01*
X140138134Y-91627781D01*
X140125346Y-91645024D01*
X140110930Y-91660930D01*
X140095024Y-91675346D01*
X140077781Y-91688134D01*
X140059368Y-91699170D01*
X140039962Y-91708349D01*
X140019750Y-91715581D01*
X139998926Y-91720797D01*
X139977691Y-91723947D01*
X139956250Y-91725000D01*
X139443750Y-91725000D01*
X139422309Y-91723947D01*
X139401074Y-91720797D01*
X139380250Y-91715581D01*
X139360038Y-91708349D01*
X139340632Y-91699170D01*
X139322219Y-91688134D01*
X139304976Y-91675346D01*
X139289070Y-91660930D01*
X139274654Y-91645024D01*
X139261866Y-91627781D01*
X139250830Y-91609368D01*
X139241651Y-91589962D01*
X139234419Y-91569750D01*
X139229203Y-91548926D01*
X139226053Y-91527691D01*
X139225000Y-91506250D01*
X139225000Y-91068750D01*
X139226053Y-91047309D01*
X139229203Y-91026074D01*
X139234419Y-91005250D01*
X139241651Y-90985038D01*
X139250830Y-90965632D01*
X139261866Y-90947219D01*
X139274654Y-90929976D01*
X139289070Y-90914070D01*
X139304976Y-90899654D01*
X139322219Y-90886866D01*
X139340632Y-90875830D01*
X139360038Y-90866651D01*
X139380250Y-90859419D01*
X139401074Y-90854203D01*
X139422309Y-90851053D01*
X139443750Y-90850000D01*
X139956250Y-90850000D01*
X139977691Y-90851053D01*
G37*
G04 #@! TD.AperFunction*
G04 #@! TA.AperFunction,SMDPad,CuDef*
G36*
X139977691Y-92426053D02*
G01*
X139998926Y-92429203D01*
X140019750Y-92434419D01*
X140039962Y-92441651D01*
X140059368Y-92450830D01*
X140077781Y-92461866D01*
X140095024Y-92474654D01*
X140110930Y-92489070D01*
X140125346Y-92504976D01*
X140138134Y-92522219D01*
X140149170Y-92540632D01*
X140158349Y-92560038D01*
X140165581Y-92580250D01*
X140170797Y-92601074D01*
X140173947Y-92622309D01*
X140175000Y-92643750D01*
X140175000Y-93081250D01*
X140173947Y-93102691D01*
X140170797Y-93123926D01*
X140165581Y-93144750D01*
X140158349Y-93164962D01*
X140149170Y-93184368D01*
X140138134Y-93202781D01*
X140125346Y-93220024D01*
X140110930Y-93235930D01*
X140095024Y-93250346D01*
X140077781Y-93263134D01*
X140059368Y-93274170D01*
X140039962Y-93283349D01*
X140019750Y-93290581D01*
X139998926Y-93295797D01*
X139977691Y-93298947D01*
X139956250Y-93300000D01*
X139443750Y-93300000D01*
X139422309Y-93298947D01*
X139401074Y-93295797D01*
X139380250Y-93290581D01*
X139360038Y-93283349D01*
X139340632Y-93274170D01*
X139322219Y-93263134D01*
X139304976Y-93250346D01*
X139289070Y-93235930D01*
X139274654Y-93220024D01*
X139261866Y-93202781D01*
X139250830Y-93184368D01*
X139241651Y-93164962D01*
X139234419Y-93144750D01*
X139229203Y-93123926D01*
X139226053Y-93102691D01*
X139225000Y-93081250D01*
X139225000Y-92643750D01*
X139226053Y-92622309D01*
X139229203Y-92601074D01*
X139234419Y-92580250D01*
X139241651Y-92560038D01*
X139250830Y-92540632D01*
X139261866Y-92522219D01*
X139274654Y-92504976D01*
X139289070Y-92489070D01*
X139304976Y-92474654D01*
X139322219Y-92461866D01*
X139340632Y-92450830D01*
X139360038Y-92441651D01*
X139380250Y-92434419D01*
X139401074Y-92429203D01*
X139422309Y-92426053D01*
X139443750Y-92425000D01*
X139956250Y-92425000D01*
X139977691Y-92426053D01*
G37*
G04 #@! TD.AperFunction*
G04 #@! TA.AperFunction,SMDPad,CuDef*
G36*
X139977691Y-89251053D02*
G01*
X139998926Y-89254203D01*
X140019750Y-89259419D01*
X140039962Y-89266651D01*
X140059368Y-89275830D01*
X140077781Y-89286866D01*
X140095024Y-89299654D01*
X140110930Y-89314070D01*
X140125346Y-89329976D01*
X140138134Y-89347219D01*
X140149170Y-89365632D01*
X140158349Y-89385038D01*
X140165581Y-89405250D01*
X140170797Y-89426074D01*
X140173947Y-89447309D01*
X140175000Y-89468750D01*
X140175000Y-89906250D01*
X140173947Y-89927691D01*
X140170797Y-89948926D01*
X140165581Y-89969750D01*
X140158349Y-89989962D01*
X140149170Y-90009368D01*
X140138134Y-90027781D01*
X140125346Y-90045024D01*
X140110930Y-90060930D01*
X140095024Y-90075346D01*
X140077781Y-90088134D01*
X140059368Y-90099170D01*
X140039962Y-90108349D01*
X140019750Y-90115581D01*
X139998926Y-90120797D01*
X139977691Y-90123947D01*
X139956250Y-90125000D01*
X139443750Y-90125000D01*
X139422309Y-90123947D01*
X139401074Y-90120797D01*
X139380250Y-90115581D01*
X139360038Y-90108349D01*
X139340632Y-90099170D01*
X139322219Y-90088134D01*
X139304976Y-90075346D01*
X139289070Y-90060930D01*
X139274654Y-90045024D01*
X139261866Y-90027781D01*
X139250830Y-90009368D01*
X139241651Y-89989962D01*
X139234419Y-89969750D01*
X139229203Y-89948926D01*
X139226053Y-89927691D01*
X139225000Y-89906250D01*
X139225000Y-89468750D01*
X139226053Y-89447309D01*
X139229203Y-89426074D01*
X139234419Y-89405250D01*
X139241651Y-89385038D01*
X139250830Y-89365632D01*
X139261866Y-89347219D01*
X139274654Y-89329976D01*
X139289070Y-89314070D01*
X139304976Y-89299654D01*
X139322219Y-89286866D01*
X139340632Y-89275830D01*
X139360038Y-89266651D01*
X139380250Y-89259419D01*
X139401074Y-89254203D01*
X139422309Y-89251053D01*
X139443750Y-89250000D01*
X139956250Y-89250000D01*
X139977691Y-89251053D01*
G37*
G04 #@! TD.AperFunction*
G04 #@! TA.AperFunction,SMDPad,CuDef*
G36*
X139977691Y-87676053D02*
G01*
X139998926Y-87679203D01*
X140019750Y-87684419D01*
X140039962Y-87691651D01*
X140059368Y-87700830D01*
X140077781Y-87711866D01*
X140095024Y-87724654D01*
X140110930Y-87739070D01*
X140125346Y-87754976D01*
X140138134Y-87772219D01*
X140149170Y-87790632D01*
X140158349Y-87810038D01*
X140165581Y-87830250D01*
X140170797Y-87851074D01*
X140173947Y-87872309D01*
X140175000Y-87893750D01*
X140175000Y-88331250D01*
X140173947Y-88352691D01*
X140170797Y-88373926D01*
X140165581Y-88394750D01*
X140158349Y-88414962D01*
X140149170Y-88434368D01*
X140138134Y-88452781D01*
X140125346Y-88470024D01*
X140110930Y-88485930D01*
X140095024Y-88500346D01*
X140077781Y-88513134D01*
X140059368Y-88524170D01*
X140039962Y-88533349D01*
X140019750Y-88540581D01*
X139998926Y-88545797D01*
X139977691Y-88548947D01*
X139956250Y-88550000D01*
X139443750Y-88550000D01*
X139422309Y-88548947D01*
X139401074Y-88545797D01*
X139380250Y-88540581D01*
X139360038Y-88533349D01*
X139340632Y-88524170D01*
X139322219Y-88513134D01*
X139304976Y-88500346D01*
X139289070Y-88485930D01*
X139274654Y-88470024D01*
X139261866Y-88452781D01*
X139250830Y-88434368D01*
X139241651Y-88414962D01*
X139234419Y-88394750D01*
X139229203Y-88373926D01*
X139226053Y-88352691D01*
X139225000Y-88331250D01*
X139225000Y-87893750D01*
X139226053Y-87872309D01*
X139229203Y-87851074D01*
X139234419Y-87830250D01*
X139241651Y-87810038D01*
X139250830Y-87790632D01*
X139261866Y-87772219D01*
X139274654Y-87754976D01*
X139289070Y-87739070D01*
X139304976Y-87724654D01*
X139322219Y-87711866D01*
X139340632Y-87700830D01*
X139360038Y-87691651D01*
X139380250Y-87684419D01*
X139401074Y-87679203D01*
X139422309Y-87676053D01*
X139443750Y-87675000D01*
X139956250Y-87675000D01*
X139977691Y-87676053D01*
G37*
G04 #@! TD.AperFunction*
G04 #@! TA.AperFunction,SMDPad,CuDef*
G36*
X145807691Y-87156053D02*
G01*
X145828926Y-87159203D01*
X145849750Y-87164419D01*
X145869962Y-87171651D01*
X145889368Y-87180830D01*
X145907781Y-87191866D01*
X145925024Y-87204654D01*
X145940930Y-87219070D01*
X145955346Y-87234976D01*
X145968134Y-87252219D01*
X145979170Y-87270632D01*
X145988349Y-87290038D01*
X145995581Y-87310250D01*
X146000797Y-87331074D01*
X146003947Y-87352309D01*
X146005000Y-87373750D01*
X146005000Y-87886250D01*
X146003947Y-87907691D01*
X146000797Y-87928926D01*
X145995581Y-87949750D01*
X145988349Y-87969962D01*
X145979170Y-87989368D01*
X145968134Y-88007781D01*
X145955346Y-88025024D01*
X145940930Y-88040930D01*
X145925024Y-88055346D01*
X145907781Y-88068134D01*
X145889368Y-88079170D01*
X145869962Y-88088349D01*
X145849750Y-88095581D01*
X145828926Y-88100797D01*
X145807691Y-88103947D01*
X145786250Y-88105000D01*
X145348750Y-88105000D01*
X145327309Y-88103947D01*
X145306074Y-88100797D01*
X145285250Y-88095581D01*
X145265038Y-88088349D01*
X145245632Y-88079170D01*
X145227219Y-88068134D01*
X145209976Y-88055346D01*
X145194070Y-88040930D01*
X145179654Y-88025024D01*
X145166866Y-88007781D01*
X145155830Y-87989368D01*
X145146651Y-87969962D01*
X145139419Y-87949750D01*
X145134203Y-87928926D01*
X145131053Y-87907691D01*
X145130000Y-87886250D01*
X145130000Y-87373750D01*
X145131053Y-87352309D01*
X145134203Y-87331074D01*
X145139419Y-87310250D01*
X145146651Y-87290038D01*
X145155830Y-87270632D01*
X145166866Y-87252219D01*
X145179654Y-87234976D01*
X145194070Y-87219070D01*
X145209976Y-87204654D01*
X145227219Y-87191866D01*
X145245632Y-87180830D01*
X145265038Y-87171651D01*
X145285250Y-87164419D01*
X145306074Y-87159203D01*
X145327309Y-87156053D01*
X145348750Y-87155000D01*
X145786250Y-87155000D01*
X145807691Y-87156053D01*
G37*
G04 #@! TD.AperFunction*
G04 #@! TA.AperFunction,SMDPad,CuDef*
G36*
X144232691Y-87156053D02*
G01*
X144253926Y-87159203D01*
X144274750Y-87164419D01*
X144294962Y-87171651D01*
X144314368Y-87180830D01*
X144332781Y-87191866D01*
X144350024Y-87204654D01*
X144365930Y-87219070D01*
X144380346Y-87234976D01*
X144393134Y-87252219D01*
X144404170Y-87270632D01*
X144413349Y-87290038D01*
X144420581Y-87310250D01*
X144425797Y-87331074D01*
X144428947Y-87352309D01*
X144430000Y-87373750D01*
X144430000Y-87886250D01*
X144428947Y-87907691D01*
X144425797Y-87928926D01*
X144420581Y-87949750D01*
X144413349Y-87969962D01*
X144404170Y-87989368D01*
X144393134Y-88007781D01*
X144380346Y-88025024D01*
X144365930Y-88040930D01*
X144350024Y-88055346D01*
X144332781Y-88068134D01*
X144314368Y-88079170D01*
X144294962Y-88088349D01*
X144274750Y-88095581D01*
X144253926Y-88100797D01*
X144232691Y-88103947D01*
X144211250Y-88105000D01*
X143773750Y-88105000D01*
X143752309Y-88103947D01*
X143731074Y-88100797D01*
X143710250Y-88095581D01*
X143690038Y-88088349D01*
X143670632Y-88079170D01*
X143652219Y-88068134D01*
X143634976Y-88055346D01*
X143619070Y-88040930D01*
X143604654Y-88025024D01*
X143591866Y-88007781D01*
X143580830Y-87989368D01*
X143571651Y-87969962D01*
X143564419Y-87949750D01*
X143559203Y-87928926D01*
X143556053Y-87907691D01*
X143555000Y-87886250D01*
X143555000Y-87373750D01*
X143556053Y-87352309D01*
X143559203Y-87331074D01*
X143564419Y-87310250D01*
X143571651Y-87290038D01*
X143580830Y-87270632D01*
X143591866Y-87252219D01*
X143604654Y-87234976D01*
X143619070Y-87219070D01*
X143634976Y-87204654D01*
X143652219Y-87191866D01*
X143670632Y-87180830D01*
X143690038Y-87171651D01*
X143710250Y-87164419D01*
X143731074Y-87159203D01*
X143752309Y-87156053D01*
X143773750Y-87155000D01*
X144211250Y-87155000D01*
X144232691Y-87156053D01*
G37*
G04 #@! TD.AperFunction*
D14*
X144145000Y-84302500D02*
X146050000Y-84302500D01*
X127829999Y-93949999D02*
X128205000Y-94325000D01*
X128205000Y-94325000D02*
X128205000Y-95325000D01*
X127829999Y-90200001D02*
X127829999Y-93949999D01*
X128205000Y-89825000D02*
X127829999Y-90200001D01*
X128205000Y-88825000D02*
X128205000Y-89825000D01*
X142875000Y-85088589D02*
X142875000Y-86360000D01*
X142875000Y-86360000D02*
X142240000Y-86995000D01*
X143661089Y-84302500D02*
X142875000Y-85088589D01*
X144145000Y-84302500D02*
X143661089Y-84302500D01*
X128205000Y-87825000D02*
X128205000Y-88825000D01*
X142240000Y-86995000D02*
X129035000Y-86995000D01*
X129035000Y-86995000D02*
X128205000Y-87825000D01*
X133829999Y-93549999D02*
X134605000Y-94325000D01*
X134605000Y-94325000D02*
X134605000Y-95325000D01*
X133829999Y-90600001D02*
X133829999Y-93549999D01*
X134605000Y-89825000D02*
X133829999Y-90600001D01*
X134605000Y-88825000D02*
X134605000Y-89825000D01*
X134605000Y-95325000D02*
X136450000Y-95325000D01*
X137312500Y-94462500D02*
X139700000Y-94462500D01*
X136450000Y-95325000D02*
X137312500Y-94462500D01*
X139700000Y-92862500D02*
X139700000Y-94462500D01*
X131405000Y-89825000D02*
X131405000Y-95325000D01*
X131405000Y-88825000D02*
X131405000Y-89825000D01*
X143992500Y-87630000D02*
X140970000Y-87630000D01*
X140487500Y-88112500D02*
X139700000Y-88112500D01*
X140970000Y-87630000D02*
X140487500Y-88112500D01*
X132405000Y-88825000D02*
X133600000Y-87630000D01*
X131405000Y-88825000D02*
X132405000Y-88825000D01*
X139655000Y-87630000D02*
X139700000Y-87675000D01*
X139700000Y-87675000D02*
X139700000Y-88112500D01*
X133600000Y-87630000D02*
X139655000Y-87630000D01*
X152400000Y-92075000D02*
X152400000Y-94615000D01*
X139700000Y-89687500D02*
X139225000Y-89687500D01*
X138899990Y-90012510D02*
X138899990Y-91731484D01*
X139225000Y-89687500D02*
X138899990Y-90012510D01*
X138899990Y-91731484D02*
X139268496Y-92099990D01*
X140181484Y-92099990D02*
X140970000Y-92888506D01*
X139268496Y-92099990D02*
X140181484Y-92099990D01*
X140970000Y-92888506D02*
X140970000Y-93980000D01*
X140970000Y-93980000D02*
X142875000Y-95885000D01*
X151130000Y-95885000D02*
X152400000Y-94615000D01*
X142875000Y-95885000D02*
X151130000Y-95885000D01*
X152400000Y-86927081D02*
X152400000Y-88265000D01*
X152400000Y-85725000D02*
X152400000Y-86927081D01*
X145567500Y-88105000D02*
X145567500Y-87630000D01*
X151224999Y-89440001D02*
X146902501Y-89440001D01*
X146902501Y-89440001D02*
X145567500Y-88105000D01*
X152400000Y-88265000D02*
X151224999Y-89440001D01*
X149860000Y-93277081D02*
X149860000Y-94615000D01*
X149860000Y-92075000D02*
X149860000Y-93277081D01*
X146050000Y-85877500D02*
X146532500Y-85877500D01*
X146532500Y-85877500D02*
X147955000Y-84455000D01*
X153575001Y-88829001D02*
X152234002Y-90170000D01*
X153575001Y-85160999D02*
X153575001Y-88829001D01*
X147955000Y-84455000D02*
X152869002Y-84455000D01*
X152869002Y-84455000D02*
X153575001Y-85160999D01*
X151765000Y-90170000D02*
X149860000Y-92075000D01*
X152234002Y-90170000D02*
X151765000Y-90170000D01*
X149860000Y-88265000D02*
X149860000Y-85725000D01*
X148944990Y-86640010D02*
X149010001Y-86574999D01*
X144806006Y-85877500D02*
X145568516Y-86640010D01*
X149010001Y-86574999D02*
X149860000Y-85725000D01*
X145568516Y-86640010D02*
X148944990Y-86640010D01*
X144145000Y-85877500D02*
X144806006Y-85877500D01*
X154940000Y-92075000D02*
X154940000Y-94615000D01*
X139700000Y-96475000D02*
X139745000Y-96520000D01*
X139700000Y-96037500D02*
X139700000Y-96475000D01*
X153035000Y-96520000D02*
X154940000Y-94615000D01*
X139745000Y-96520000D02*
X153035000Y-96520000D01*
X154940000Y-86927081D02*
X154940000Y-88265000D01*
X154940000Y-85725000D02*
X154940000Y-86927081D01*
X139700000Y-91287500D02*
X140175000Y-91287500D01*
X140175000Y-91287500D02*
X141154989Y-90307511D01*
X141154989Y-90307511D02*
X141154989Y-89348601D01*
X147768600Y-84004989D02*
X153219989Y-84004989D01*
X146683590Y-85090000D02*
X147768600Y-84004989D01*
X142053599Y-88449991D02*
X144416503Y-88449991D01*
X144755010Y-87019990D02*
X144375030Y-86640010D01*
X143344990Y-85255010D02*
X143510000Y-85090000D01*
X141154989Y-89348601D02*
X142053599Y-88449991D01*
X154090001Y-84875001D02*
X154940000Y-85725000D01*
X153219989Y-84004989D02*
X154090001Y-84875001D01*
X144416503Y-88449991D02*
X144755010Y-88111484D01*
X144375030Y-86640010D02*
X143663516Y-86640010D01*
X143344990Y-86321484D02*
X143344990Y-85255010D01*
X144755010Y-88111484D02*
X144755010Y-87019990D01*
X143663516Y-86640010D02*
X143344990Y-86321484D01*
X143510000Y-85090000D02*
X146683590Y-85090000D01*
M02*
