G04 #@! TF.GenerationSoftware,KiCad,Pcbnew,(5.1.5)-3*
G04 #@! TF.CreationDate,2020-03-24T14:08:44+01:00*
G04 #@! TF.ProjectId,RiserBoard,52697365-7242-46f6-9172-642e6b696361,v0.0*
G04 #@! TF.SameCoordinates,Original*
G04 #@! TF.FileFunction,Paste,Top*
G04 #@! TF.FilePolarity,Positive*
%FSLAX46Y46*%
G04 Gerber Fmt 4.6, Leading zero omitted, Abs format (unit mm)*
G04 Created by KiCad (PCBNEW (5.1.5)-3) date 2020-03-24 14:08:44*
%MOMM*%
%LPD*%
G04 APERTURE LIST*
%ADD10R,2.600000X2.700000*%
%ADD11R,2.200000X2.100000*%
%ADD12R,2.700000X2.100000*%
%ADD13R,2.000000X2.100000*%
%ADD14C,0.100000*%
G04 APERTURE END LIST*
D10*
X142165000Y-91105500D03*
D11*
X128765000Y-95805500D03*
D12*
X138065000Y-95805500D03*
D11*
X130665000Y-87705500D03*
D13*
X127965000Y-87705500D03*
D14*
G36*
X146327691Y-88616053D02*
G01*
X146348926Y-88619203D01*
X146369750Y-88624419D01*
X146389962Y-88631651D01*
X146409368Y-88640830D01*
X146427781Y-88651866D01*
X146445024Y-88664654D01*
X146460930Y-88679070D01*
X146475346Y-88694976D01*
X146488134Y-88712219D01*
X146499170Y-88730632D01*
X146508349Y-88750038D01*
X146515581Y-88770250D01*
X146520797Y-88791074D01*
X146523947Y-88812309D01*
X146525000Y-88833750D01*
X146525000Y-89271250D01*
X146523947Y-89292691D01*
X146520797Y-89313926D01*
X146515581Y-89334750D01*
X146508349Y-89354962D01*
X146499170Y-89374368D01*
X146488134Y-89392781D01*
X146475346Y-89410024D01*
X146460930Y-89425930D01*
X146445024Y-89440346D01*
X146427781Y-89453134D01*
X146409368Y-89464170D01*
X146389962Y-89473349D01*
X146369750Y-89480581D01*
X146348926Y-89485797D01*
X146327691Y-89488947D01*
X146306250Y-89490000D01*
X145793750Y-89490000D01*
X145772309Y-89488947D01*
X145751074Y-89485797D01*
X145730250Y-89480581D01*
X145710038Y-89473349D01*
X145690632Y-89464170D01*
X145672219Y-89453134D01*
X145654976Y-89440346D01*
X145639070Y-89425930D01*
X145624654Y-89410024D01*
X145611866Y-89392781D01*
X145600830Y-89374368D01*
X145591651Y-89354962D01*
X145584419Y-89334750D01*
X145579203Y-89313926D01*
X145576053Y-89292691D01*
X145575000Y-89271250D01*
X145575000Y-88833750D01*
X145576053Y-88812309D01*
X145579203Y-88791074D01*
X145584419Y-88770250D01*
X145591651Y-88750038D01*
X145600830Y-88730632D01*
X145611866Y-88712219D01*
X145624654Y-88694976D01*
X145639070Y-88679070D01*
X145654976Y-88664654D01*
X145672219Y-88651866D01*
X145690632Y-88640830D01*
X145710038Y-88631651D01*
X145730250Y-88624419D01*
X145751074Y-88619203D01*
X145772309Y-88616053D01*
X145793750Y-88615000D01*
X146306250Y-88615000D01*
X146327691Y-88616053D01*
G37*
G36*
X146327691Y-87041053D02*
G01*
X146348926Y-87044203D01*
X146369750Y-87049419D01*
X146389962Y-87056651D01*
X146409368Y-87065830D01*
X146427781Y-87076866D01*
X146445024Y-87089654D01*
X146460930Y-87104070D01*
X146475346Y-87119976D01*
X146488134Y-87137219D01*
X146499170Y-87155632D01*
X146508349Y-87175038D01*
X146515581Y-87195250D01*
X146520797Y-87216074D01*
X146523947Y-87237309D01*
X146525000Y-87258750D01*
X146525000Y-87696250D01*
X146523947Y-87717691D01*
X146520797Y-87738926D01*
X146515581Y-87759750D01*
X146508349Y-87779962D01*
X146499170Y-87799368D01*
X146488134Y-87817781D01*
X146475346Y-87835024D01*
X146460930Y-87850930D01*
X146445024Y-87865346D01*
X146427781Y-87878134D01*
X146409368Y-87889170D01*
X146389962Y-87898349D01*
X146369750Y-87905581D01*
X146348926Y-87910797D01*
X146327691Y-87913947D01*
X146306250Y-87915000D01*
X145793750Y-87915000D01*
X145772309Y-87913947D01*
X145751074Y-87910797D01*
X145730250Y-87905581D01*
X145710038Y-87898349D01*
X145690632Y-87889170D01*
X145672219Y-87878134D01*
X145654976Y-87865346D01*
X145639070Y-87850930D01*
X145624654Y-87835024D01*
X145611866Y-87817781D01*
X145600830Y-87799368D01*
X145591651Y-87779962D01*
X145584419Y-87759750D01*
X145579203Y-87738926D01*
X145576053Y-87717691D01*
X145575000Y-87696250D01*
X145575000Y-87258750D01*
X145576053Y-87237309D01*
X145579203Y-87216074D01*
X145584419Y-87195250D01*
X145591651Y-87175038D01*
X145600830Y-87155632D01*
X145611866Y-87137219D01*
X145624654Y-87119976D01*
X145639070Y-87104070D01*
X145654976Y-87089654D01*
X145672219Y-87076866D01*
X145690632Y-87065830D01*
X145710038Y-87056651D01*
X145730250Y-87049419D01*
X145751074Y-87044203D01*
X145772309Y-87041053D01*
X145793750Y-87040000D01*
X146306250Y-87040000D01*
X146327691Y-87041053D01*
G37*
G36*
X146327691Y-83866053D02*
G01*
X146348926Y-83869203D01*
X146369750Y-83874419D01*
X146389962Y-83881651D01*
X146409368Y-83890830D01*
X146427781Y-83901866D01*
X146445024Y-83914654D01*
X146460930Y-83929070D01*
X146475346Y-83944976D01*
X146488134Y-83962219D01*
X146499170Y-83980632D01*
X146508349Y-84000038D01*
X146515581Y-84020250D01*
X146520797Y-84041074D01*
X146523947Y-84062309D01*
X146525000Y-84083750D01*
X146525000Y-84521250D01*
X146523947Y-84542691D01*
X146520797Y-84563926D01*
X146515581Y-84584750D01*
X146508349Y-84604962D01*
X146499170Y-84624368D01*
X146488134Y-84642781D01*
X146475346Y-84660024D01*
X146460930Y-84675930D01*
X146445024Y-84690346D01*
X146427781Y-84703134D01*
X146409368Y-84714170D01*
X146389962Y-84723349D01*
X146369750Y-84730581D01*
X146348926Y-84735797D01*
X146327691Y-84738947D01*
X146306250Y-84740000D01*
X145793750Y-84740000D01*
X145772309Y-84738947D01*
X145751074Y-84735797D01*
X145730250Y-84730581D01*
X145710038Y-84723349D01*
X145690632Y-84714170D01*
X145672219Y-84703134D01*
X145654976Y-84690346D01*
X145639070Y-84675930D01*
X145624654Y-84660024D01*
X145611866Y-84642781D01*
X145600830Y-84624368D01*
X145591651Y-84604962D01*
X145584419Y-84584750D01*
X145579203Y-84563926D01*
X145576053Y-84542691D01*
X145575000Y-84521250D01*
X145575000Y-84083750D01*
X145576053Y-84062309D01*
X145579203Y-84041074D01*
X145584419Y-84020250D01*
X145591651Y-84000038D01*
X145600830Y-83980632D01*
X145611866Y-83962219D01*
X145624654Y-83944976D01*
X145639070Y-83929070D01*
X145654976Y-83914654D01*
X145672219Y-83901866D01*
X145690632Y-83890830D01*
X145710038Y-83881651D01*
X145730250Y-83874419D01*
X145751074Y-83869203D01*
X145772309Y-83866053D01*
X145793750Y-83865000D01*
X146306250Y-83865000D01*
X146327691Y-83866053D01*
G37*
G36*
X146327691Y-85441053D02*
G01*
X146348926Y-85444203D01*
X146369750Y-85449419D01*
X146389962Y-85456651D01*
X146409368Y-85465830D01*
X146427781Y-85476866D01*
X146445024Y-85489654D01*
X146460930Y-85504070D01*
X146475346Y-85519976D01*
X146488134Y-85537219D01*
X146499170Y-85555632D01*
X146508349Y-85575038D01*
X146515581Y-85595250D01*
X146520797Y-85616074D01*
X146523947Y-85637309D01*
X146525000Y-85658750D01*
X146525000Y-86096250D01*
X146523947Y-86117691D01*
X146520797Y-86138926D01*
X146515581Y-86159750D01*
X146508349Y-86179962D01*
X146499170Y-86199368D01*
X146488134Y-86217781D01*
X146475346Y-86235024D01*
X146460930Y-86250930D01*
X146445024Y-86265346D01*
X146427781Y-86278134D01*
X146409368Y-86289170D01*
X146389962Y-86298349D01*
X146369750Y-86305581D01*
X146348926Y-86310797D01*
X146327691Y-86313947D01*
X146306250Y-86315000D01*
X145793750Y-86315000D01*
X145772309Y-86313947D01*
X145751074Y-86310797D01*
X145730250Y-86305581D01*
X145710038Y-86298349D01*
X145690632Y-86289170D01*
X145672219Y-86278134D01*
X145654976Y-86265346D01*
X145639070Y-86250930D01*
X145624654Y-86235024D01*
X145611866Y-86217781D01*
X145600830Y-86199368D01*
X145591651Y-86179962D01*
X145584419Y-86159750D01*
X145579203Y-86138926D01*
X145576053Y-86117691D01*
X145575000Y-86096250D01*
X145575000Y-85658750D01*
X145576053Y-85637309D01*
X145579203Y-85616074D01*
X145584419Y-85595250D01*
X145591651Y-85575038D01*
X145600830Y-85555632D01*
X145611866Y-85537219D01*
X145624654Y-85519976D01*
X145639070Y-85504070D01*
X145654976Y-85489654D01*
X145672219Y-85476866D01*
X145690632Y-85465830D01*
X145710038Y-85456651D01*
X145730250Y-85449419D01*
X145751074Y-85444203D01*
X145772309Y-85441053D01*
X145793750Y-85440000D01*
X146306250Y-85440000D01*
X146327691Y-85441053D01*
G37*
G36*
X148867691Y-88616053D02*
G01*
X148888926Y-88619203D01*
X148909750Y-88624419D01*
X148929962Y-88631651D01*
X148949368Y-88640830D01*
X148967781Y-88651866D01*
X148985024Y-88664654D01*
X149000930Y-88679070D01*
X149015346Y-88694976D01*
X149028134Y-88712219D01*
X149039170Y-88730632D01*
X149048349Y-88750038D01*
X149055581Y-88770250D01*
X149060797Y-88791074D01*
X149063947Y-88812309D01*
X149065000Y-88833750D01*
X149065000Y-89271250D01*
X149063947Y-89292691D01*
X149060797Y-89313926D01*
X149055581Y-89334750D01*
X149048349Y-89354962D01*
X149039170Y-89374368D01*
X149028134Y-89392781D01*
X149015346Y-89410024D01*
X149000930Y-89425930D01*
X148985024Y-89440346D01*
X148967781Y-89453134D01*
X148949368Y-89464170D01*
X148929962Y-89473349D01*
X148909750Y-89480581D01*
X148888926Y-89485797D01*
X148867691Y-89488947D01*
X148846250Y-89490000D01*
X148333750Y-89490000D01*
X148312309Y-89488947D01*
X148291074Y-89485797D01*
X148270250Y-89480581D01*
X148250038Y-89473349D01*
X148230632Y-89464170D01*
X148212219Y-89453134D01*
X148194976Y-89440346D01*
X148179070Y-89425930D01*
X148164654Y-89410024D01*
X148151866Y-89392781D01*
X148140830Y-89374368D01*
X148131651Y-89354962D01*
X148124419Y-89334750D01*
X148119203Y-89313926D01*
X148116053Y-89292691D01*
X148115000Y-89271250D01*
X148115000Y-88833750D01*
X148116053Y-88812309D01*
X148119203Y-88791074D01*
X148124419Y-88770250D01*
X148131651Y-88750038D01*
X148140830Y-88730632D01*
X148151866Y-88712219D01*
X148164654Y-88694976D01*
X148179070Y-88679070D01*
X148194976Y-88664654D01*
X148212219Y-88651866D01*
X148230632Y-88640830D01*
X148250038Y-88631651D01*
X148270250Y-88624419D01*
X148291074Y-88619203D01*
X148312309Y-88616053D01*
X148333750Y-88615000D01*
X148846250Y-88615000D01*
X148867691Y-88616053D01*
G37*
G36*
X148867691Y-87041053D02*
G01*
X148888926Y-87044203D01*
X148909750Y-87049419D01*
X148929962Y-87056651D01*
X148949368Y-87065830D01*
X148967781Y-87076866D01*
X148985024Y-87089654D01*
X149000930Y-87104070D01*
X149015346Y-87119976D01*
X149028134Y-87137219D01*
X149039170Y-87155632D01*
X149048349Y-87175038D01*
X149055581Y-87195250D01*
X149060797Y-87216074D01*
X149063947Y-87237309D01*
X149065000Y-87258750D01*
X149065000Y-87696250D01*
X149063947Y-87717691D01*
X149060797Y-87738926D01*
X149055581Y-87759750D01*
X149048349Y-87779962D01*
X149039170Y-87799368D01*
X149028134Y-87817781D01*
X149015346Y-87835024D01*
X149000930Y-87850930D01*
X148985024Y-87865346D01*
X148967781Y-87878134D01*
X148949368Y-87889170D01*
X148929962Y-87898349D01*
X148909750Y-87905581D01*
X148888926Y-87910797D01*
X148867691Y-87913947D01*
X148846250Y-87915000D01*
X148333750Y-87915000D01*
X148312309Y-87913947D01*
X148291074Y-87910797D01*
X148270250Y-87905581D01*
X148250038Y-87898349D01*
X148230632Y-87889170D01*
X148212219Y-87878134D01*
X148194976Y-87865346D01*
X148179070Y-87850930D01*
X148164654Y-87835024D01*
X148151866Y-87817781D01*
X148140830Y-87799368D01*
X148131651Y-87779962D01*
X148124419Y-87759750D01*
X148119203Y-87738926D01*
X148116053Y-87717691D01*
X148115000Y-87696250D01*
X148115000Y-87258750D01*
X148116053Y-87237309D01*
X148119203Y-87216074D01*
X148124419Y-87195250D01*
X148131651Y-87175038D01*
X148140830Y-87155632D01*
X148151866Y-87137219D01*
X148164654Y-87119976D01*
X148179070Y-87104070D01*
X148194976Y-87089654D01*
X148212219Y-87076866D01*
X148230632Y-87065830D01*
X148250038Y-87056651D01*
X148270250Y-87049419D01*
X148291074Y-87044203D01*
X148312309Y-87041053D01*
X148333750Y-87040000D01*
X148846250Y-87040000D01*
X148867691Y-87041053D01*
G37*
G36*
X148867691Y-83866053D02*
G01*
X148888926Y-83869203D01*
X148909750Y-83874419D01*
X148929962Y-83881651D01*
X148949368Y-83890830D01*
X148967781Y-83901866D01*
X148985024Y-83914654D01*
X149000930Y-83929070D01*
X149015346Y-83944976D01*
X149028134Y-83962219D01*
X149039170Y-83980632D01*
X149048349Y-84000038D01*
X149055581Y-84020250D01*
X149060797Y-84041074D01*
X149063947Y-84062309D01*
X149065000Y-84083750D01*
X149065000Y-84521250D01*
X149063947Y-84542691D01*
X149060797Y-84563926D01*
X149055581Y-84584750D01*
X149048349Y-84604962D01*
X149039170Y-84624368D01*
X149028134Y-84642781D01*
X149015346Y-84660024D01*
X149000930Y-84675930D01*
X148985024Y-84690346D01*
X148967781Y-84703134D01*
X148949368Y-84714170D01*
X148929962Y-84723349D01*
X148909750Y-84730581D01*
X148888926Y-84735797D01*
X148867691Y-84738947D01*
X148846250Y-84740000D01*
X148333750Y-84740000D01*
X148312309Y-84738947D01*
X148291074Y-84735797D01*
X148270250Y-84730581D01*
X148250038Y-84723349D01*
X148230632Y-84714170D01*
X148212219Y-84703134D01*
X148194976Y-84690346D01*
X148179070Y-84675930D01*
X148164654Y-84660024D01*
X148151866Y-84642781D01*
X148140830Y-84624368D01*
X148131651Y-84604962D01*
X148124419Y-84584750D01*
X148119203Y-84563926D01*
X148116053Y-84542691D01*
X148115000Y-84521250D01*
X148115000Y-84083750D01*
X148116053Y-84062309D01*
X148119203Y-84041074D01*
X148124419Y-84020250D01*
X148131651Y-84000038D01*
X148140830Y-83980632D01*
X148151866Y-83962219D01*
X148164654Y-83944976D01*
X148179070Y-83929070D01*
X148194976Y-83914654D01*
X148212219Y-83901866D01*
X148230632Y-83890830D01*
X148250038Y-83881651D01*
X148270250Y-83874419D01*
X148291074Y-83869203D01*
X148312309Y-83866053D01*
X148333750Y-83865000D01*
X148846250Y-83865000D01*
X148867691Y-83866053D01*
G37*
G36*
X148867691Y-85441053D02*
G01*
X148888926Y-85444203D01*
X148909750Y-85449419D01*
X148929962Y-85456651D01*
X148949368Y-85465830D01*
X148967781Y-85476866D01*
X148985024Y-85489654D01*
X149000930Y-85504070D01*
X149015346Y-85519976D01*
X149028134Y-85537219D01*
X149039170Y-85555632D01*
X149048349Y-85575038D01*
X149055581Y-85595250D01*
X149060797Y-85616074D01*
X149063947Y-85637309D01*
X149065000Y-85658750D01*
X149065000Y-86096250D01*
X149063947Y-86117691D01*
X149060797Y-86138926D01*
X149055581Y-86159750D01*
X149048349Y-86179962D01*
X149039170Y-86199368D01*
X149028134Y-86217781D01*
X149015346Y-86235024D01*
X149000930Y-86250930D01*
X148985024Y-86265346D01*
X148967781Y-86278134D01*
X148949368Y-86289170D01*
X148929962Y-86298349D01*
X148909750Y-86305581D01*
X148888926Y-86310797D01*
X148867691Y-86313947D01*
X148846250Y-86315000D01*
X148333750Y-86315000D01*
X148312309Y-86313947D01*
X148291074Y-86310797D01*
X148270250Y-86305581D01*
X148250038Y-86298349D01*
X148230632Y-86289170D01*
X148212219Y-86278134D01*
X148194976Y-86265346D01*
X148179070Y-86250930D01*
X148164654Y-86235024D01*
X148151866Y-86217781D01*
X148140830Y-86199368D01*
X148131651Y-86179962D01*
X148124419Y-86159750D01*
X148119203Y-86138926D01*
X148116053Y-86117691D01*
X148115000Y-86096250D01*
X148115000Y-85658750D01*
X148116053Y-85637309D01*
X148119203Y-85616074D01*
X148124419Y-85595250D01*
X148131651Y-85575038D01*
X148140830Y-85555632D01*
X148151866Y-85537219D01*
X148164654Y-85519976D01*
X148179070Y-85504070D01*
X148194976Y-85489654D01*
X148212219Y-85476866D01*
X148230632Y-85465830D01*
X148250038Y-85456651D01*
X148270250Y-85449419D01*
X148291074Y-85444203D01*
X148312309Y-85441053D01*
X148333750Y-85440000D01*
X148846250Y-85440000D01*
X148867691Y-85441053D01*
G37*
G36*
X151407691Y-88616053D02*
G01*
X151428926Y-88619203D01*
X151449750Y-88624419D01*
X151469962Y-88631651D01*
X151489368Y-88640830D01*
X151507781Y-88651866D01*
X151525024Y-88664654D01*
X151540930Y-88679070D01*
X151555346Y-88694976D01*
X151568134Y-88712219D01*
X151579170Y-88730632D01*
X151588349Y-88750038D01*
X151595581Y-88770250D01*
X151600797Y-88791074D01*
X151603947Y-88812309D01*
X151605000Y-88833750D01*
X151605000Y-89271250D01*
X151603947Y-89292691D01*
X151600797Y-89313926D01*
X151595581Y-89334750D01*
X151588349Y-89354962D01*
X151579170Y-89374368D01*
X151568134Y-89392781D01*
X151555346Y-89410024D01*
X151540930Y-89425930D01*
X151525024Y-89440346D01*
X151507781Y-89453134D01*
X151489368Y-89464170D01*
X151469962Y-89473349D01*
X151449750Y-89480581D01*
X151428926Y-89485797D01*
X151407691Y-89488947D01*
X151386250Y-89490000D01*
X150873750Y-89490000D01*
X150852309Y-89488947D01*
X150831074Y-89485797D01*
X150810250Y-89480581D01*
X150790038Y-89473349D01*
X150770632Y-89464170D01*
X150752219Y-89453134D01*
X150734976Y-89440346D01*
X150719070Y-89425930D01*
X150704654Y-89410024D01*
X150691866Y-89392781D01*
X150680830Y-89374368D01*
X150671651Y-89354962D01*
X150664419Y-89334750D01*
X150659203Y-89313926D01*
X150656053Y-89292691D01*
X150655000Y-89271250D01*
X150655000Y-88833750D01*
X150656053Y-88812309D01*
X150659203Y-88791074D01*
X150664419Y-88770250D01*
X150671651Y-88750038D01*
X150680830Y-88730632D01*
X150691866Y-88712219D01*
X150704654Y-88694976D01*
X150719070Y-88679070D01*
X150734976Y-88664654D01*
X150752219Y-88651866D01*
X150770632Y-88640830D01*
X150790038Y-88631651D01*
X150810250Y-88624419D01*
X150831074Y-88619203D01*
X150852309Y-88616053D01*
X150873750Y-88615000D01*
X151386250Y-88615000D01*
X151407691Y-88616053D01*
G37*
G36*
X151407691Y-87041053D02*
G01*
X151428926Y-87044203D01*
X151449750Y-87049419D01*
X151469962Y-87056651D01*
X151489368Y-87065830D01*
X151507781Y-87076866D01*
X151525024Y-87089654D01*
X151540930Y-87104070D01*
X151555346Y-87119976D01*
X151568134Y-87137219D01*
X151579170Y-87155632D01*
X151588349Y-87175038D01*
X151595581Y-87195250D01*
X151600797Y-87216074D01*
X151603947Y-87237309D01*
X151605000Y-87258750D01*
X151605000Y-87696250D01*
X151603947Y-87717691D01*
X151600797Y-87738926D01*
X151595581Y-87759750D01*
X151588349Y-87779962D01*
X151579170Y-87799368D01*
X151568134Y-87817781D01*
X151555346Y-87835024D01*
X151540930Y-87850930D01*
X151525024Y-87865346D01*
X151507781Y-87878134D01*
X151489368Y-87889170D01*
X151469962Y-87898349D01*
X151449750Y-87905581D01*
X151428926Y-87910797D01*
X151407691Y-87913947D01*
X151386250Y-87915000D01*
X150873750Y-87915000D01*
X150852309Y-87913947D01*
X150831074Y-87910797D01*
X150810250Y-87905581D01*
X150790038Y-87898349D01*
X150770632Y-87889170D01*
X150752219Y-87878134D01*
X150734976Y-87865346D01*
X150719070Y-87850930D01*
X150704654Y-87835024D01*
X150691866Y-87817781D01*
X150680830Y-87799368D01*
X150671651Y-87779962D01*
X150664419Y-87759750D01*
X150659203Y-87738926D01*
X150656053Y-87717691D01*
X150655000Y-87696250D01*
X150655000Y-87258750D01*
X150656053Y-87237309D01*
X150659203Y-87216074D01*
X150664419Y-87195250D01*
X150671651Y-87175038D01*
X150680830Y-87155632D01*
X150691866Y-87137219D01*
X150704654Y-87119976D01*
X150719070Y-87104070D01*
X150734976Y-87089654D01*
X150752219Y-87076866D01*
X150770632Y-87065830D01*
X150790038Y-87056651D01*
X150810250Y-87049419D01*
X150831074Y-87044203D01*
X150852309Y-87041053D01*
X150873750Y-87040000D01*
X151386250Y-87040000D01*
X151407691Y-87041053D01*
G37*
G36*
X151407691Y-83866053D02*
G01*
X151428926Y-83869203D01*
X151449750Y-83874419D01*
X151469962Y-83881651D01*
X151489368Y-83890830D01*
X151507781Y-83901866D01*
X151525024Y-83914654D01*
X151540930Y-83929070D01*
X151555346Y-83944976D01*
X151568134Y-83962219D01*
X151579170Y-83980632D01*
X151588349Y-84000038D01*
X151595581Y-84020250D01*
X151600797Y-84041074D01*
X151603947Y-84062309D01*
X151605000Y-84083750D01*
X151605000Y-84521250D01*
X151603947Y-84542691D01*
X151600797Y-84563926D01*
X151595581Y-84584750D01*
X151588349Y-84604962D01*
X151579170Y-84624368D01*
X151568134Y-84642781D01*
X151555346Y-84660024D01*
X151540930Y-84675930D01*
X151525024Y-84690346D01*
X151507781Y-84703134D01*
X151489368Y-84714170D01*
X151469962Y-84723349D01*
X151449750Y-84730581D01*
X151428926Y-84735797D01*
X151407691Y-84738947D01*
X151386250Y-84740000D01*
X150873750Y-84740000D01*
X150852309Y-84738947D01*
X150831074Y-84735797D01*
X150810250Y-84730581D01*
X150790038Y-84723349D01*
X150770632Y-84714170D01*
X150752219Y-84703134D01*
X150734976Y-84690346D01*
X150719070Y-84675930D01*
X150704654Y-84660024D01*
X150691866Y-84642781D01*
X150680830Y-84624368D01*
X150671651Y-84604962D01*
X150664419Y-84584750D01*
X150659203Y-84563926D01*
X150656053Y-84542691D01*
X150655000Y-84521250D01*
X150655000Y-84083750D01*
X150656053Y-84062309D01*
X150659203Y-84041074D01*
X150664419Y-84020250D01*
X150671651Y-84000038D01*
X150680830Y-83980632D01*
X150691866Y-83962219D01*
X150704654Y-83944976D01*
X150719070Y-83929070D01*
X150734976Y-83914654D01*
X150752219Y-83901866D01*
X150770632Y-83890830D01*
X150790038Y-83881651D01*
X150810250Y-83874419D01*
X150831074Y-83869203D01*
X150852309Y-83866053D01*
X150873750Y-83865000D01*
X151386250Y-83865000D01*
X151407691Y-83866053D01*
G37*
G36*
X151407691Y-85441053D02*
G01*
X151428926Y-85444203D01*
X151449750Y-85449419D01*
X151469962Y-85456651D01*
X151489368Y-85465830D01*
X151507781Y-85476866D01*
X151525024Y-85489654D01*
X151540930Y-85504070D01*
X151555346Y-85519976D01*
X151568134Y-85537219D01*
X151579170Y-85555632D01*
X151588349Y-85575038D01*
X151595581Y-85595250D01*
X151600797Y-85616074D01*
X151603947Y-85637309D01*
X151605000Y-85658750D01*
X151605000Y-86096250D01*
X151603947Y-86117691D01*
X151600797Y-86138926D01*
X151595581Y-86159750D01*
X151588349Y-86179962D01*
X151579170Y-86199368D01*
X151568134Y-86217781D01*
X151555346Y-86235024D01*
X151540930Y-86250930D01*
X151525024Y-86265346D01*
X151507781Y-86278134D01*
X151489368Y-86289170D01*
X151469962Y-86298349D01*
X151449750Y-86305581D01*
X151428926Y-86310797D01*
X151407691Y-86313947D01*
X151386250Y-86315000D01*
X150873750Y-86315000D01*
X150852309Y-86313947D01*
X150831074Y-86310797D01*
X150810250Y-86305581D01*
X150790038Y-86298349D01*
X150770632Y-86289170D01*
X150752219Y-86278134D01*
X150734976Y-86265346D01*
X150719070Y-86250930D01*
X150704654Y-86235024D01*
X150691866Y-86217781D01*
X150680830Y-86199368D01*
X150671651Y-86179962D01*
X150664419Y-86159750D01*
X150659203Y-86138926D01*
X150656053Y-86117691D01*
X150655000Y-86096250D01*
X150655000Y-85658750D01*
X150656053Y-85637309D01*
X150659203Y-85616074D01*
X150664419Y-85595250D01*
X150671651Y-85575038D01*
X150680830Y-85555632D01*
X150691866Y-85537219D01*
X150704654Y-85519976D01*
X150719070Y-85504070D01*
X150734976Y-85489654D01*
X150752219Y-85476866D01*
X150770632Y-85465830D01*
X150790038Y-85456651D01*
X150810250Y-85449419D01*
X150831074Y-85444203D01*
X150852309Y-85441053D01*
X150873750Y-85440000D01*
X151386250Y-85440000D01*
X151407691Y-85441053D01*
G37*
M02*
