G04 #@! TF.GenerationSoftware,KiCad,Pcbnew,(5.1.5)-3*
G04 #@! TF.CreationDate,2020-05-24T09:41:01+02:00*
G04 #@! TF.ProjectId,RiserBoard,52697365-7242-46f6-9172-642e6b696361,v0.0*
G04 #@! TF.SameCoordinates,Original*
G04 #@! TF.FileFunction,Soldermask,Bot*
G04 #@! TF.FilePolarity,Negative*
%FSLAX46Y46*%
G04 Gerber Fmt 4.6, Leading zero omitted, Abs format (unit mm)*
G04 Created by KiCad (PCBNEW (5.1.5)-3) date 2020-05-24 09:41:01*
%MOMM*%
%LPD*%
G04 APERTURE LIST*
%ADD10C,0.100000*%
G04 APERTURE END LIST*
D10*
G36*
X152513512Y-93718927D02*
G01*
X152662812Y-93748624D01*
X152826784Y-93816544D01*
X152974354Y-93915147D01*
X153099853Y-94040646D01*
X153198456Y-94188216D01*
X153266376Y-94352188D01*
X153301000Y-94526259D01*
X153301000Y-94703741D01*
X153266376Y-94877812D01*
X153198456Y-95041784D01*
X153099853Y-95189354D01*
X152974354Y-95314853D01*
X152826784Y-95413456D01*
X152662812Y-95481376D01*
X152513512Y-95511073D01*
X152488742Y-95516000D01*
X152311258Y-95516000D01*
X152286488Y-95511073D01*
X152137188Y-95481376D01*
X151973216Y-95413456D01*
X151825646Y-95314853D01*
X151700147Y-95189354D01*
X151601544Y-95041784D01*
X151533624Y-94877812D01*
X151499000Y-94703741D01*
X151499000Y-94526259D01*
X151533624Y-94352188D01*
X151601544Y-94188216D01*
X151700147Y-94040646D01*
X151825646Y-93915147D01*
X151973216Y-93816544D01*
X152137188Y-93748624D01*
X152286488Y-93718927D01*
X152311258Y-93714000D01*
X152488742Y-93714000D01*
X152513512Y-93718927D01*
G37*
G36*
X150761000Y-95516000D02*
G01*
X148959000Y-95516000D01*
X148959000Y-93714000D01*
X150761000Y-93714000D01*
X150761000Y-95516000D01*
G37*
G36*
X155053512Y-93718927D02*
G01*
X155202812Y-93748624D01*
X155366784Y-93816544D01*
X155514354Y-93915147D01*
X155639853Y-94040646D01*
X155738456Y-94188216D01*
X155806376Y-94352188D01*
X155841000Y-94526259D01*
X155841000Y-94703741D01*
X155806376Y-94877812D01*
X155738456Y-95041784D01*
X155639853Y-95189354D01*
X155514354Y-95314853D01*
X155366784Y-95413456D01*
X155202812Y-95481376D01*
X155053512Y-95511073D01*
X155028742Y-95516000D01*
X154851258Y-95516000D01*
X154826488Y-95511073D01*
X154677188Y-95481376D01*
X154513216Y-95413456D01*
X154365646Y-95314853D01*
X154240147Y-95189354D01*
X154141544Y-95041784D01*
X154073624Y-94877812D01*
X154039000Y-94703741D01*
X154039000Y-94526259D01*
X154073624Y-94352188D01*
X154141544Y-94188216D01*
X154240147Y-94040646D01*
X154365646Y-93915147D01*
X154513216Y-93816544D01*
X154677188Y-93748624D01*
X154826488Y-93718927D01*
X154851258Y-93714000D01*
X155028742Y-93714000D01*
X155053512Y-93718927D01*
G37*
G36*
X141980256Y-90466298D02*
G01*
X142086579Y-90487447D01*
X142387042Y-90611903D01*
X142657451Y-90792585D01*
X142887415Y-91022549D01*
X143068097Y-91292958D01*
X143180529Y-91564392D01*
X143192553Y-91593422D01*
X143256000Y-91912389D01*
X143256000Y-92237611D01*
X143213702Y-92450256D01*
X143192553Y-92556579D01*
X143068097Y-92857042D01*
X142887415Y-93127451D01*
X142657451Y-93357415D01*
X142387042Y-93538097D01*
X142086579Y-93662553D01*
X141980256Y-93683702D01*
X141767611Y-93726000D01*
X141442389Y-93726000D01*
X141229744Y-93683702D01*
X141123421Y-93662553D01*
X140822958Y-93538097D01*
X140552549Y-93357415D01*
X140322585Y-93127451D01*
X140141903Y-92857042D01*
X140017447Y-92556579D01*
X139996298Y-92450256D01*
X139954000Y-92237611D01*
X139954000Y-91912389D01*
X140017447Y-91593422D01*
X140029472Y-91564392D01*
X140141903Y-91292958D01*
X140322585Y-91022549D01*
X140552549Y-90792585D01*
X140822958Y-90611903D01*
X141123421Y-90487447D01*
X141229744Y-90466298D01*
X141442389Y-90424000D01*
X141767611Y-90424000D01*
X141980256Y-90466298D01*
G37*
G36*
X155053512Y-91178927D02*
G01*
X155202812Y-91208624D01*
X155366784Y-91276544D01*
X155514354Y-91375147D01*
X155639853Y-91500646D01*
X155738456Y-91648216D01*
X155806376Y-91812188D01*
X155841000Y-91986259D01*
X155841000Y-92163741D01*
X155806376Y-92337812D01*
X155738456Y-92501784D01*
X155639853Y-92649354D01*
X155514354Y-92774853D01*
X155366784Y-92873456D01*
X155202812Y-92941376D01*
X155053512Y-92971073D01*
X155028742Y-92976000D01*
X154851258Y-92976000D01*
X154826488Y-92971073D01*
X154677188Y-92941376D01*
X154513216Y-92873456D01*
X154365646Y-92774853D01*
X154240147Y-92649354D01*
X154141544Y-92501784D01*
X154073624Y-92337812D01*
X154039000Y-92163741D01*
X154039000Y-91986259D01*
X154073624Y-91812188D01*
X154141544Y-91648216D01*
X154240147Y-91500646D01*
X154365646Y-91375147D01*
X154513216Y-91276544D01*
X154677188Y-91208624D01*
X154826488Y-91178927D01*
X154851258Y-91174000D01*
X155028742Y-91174000D01*
X155053512Y-91178927D01*
G37*
G36*
X152513512Y-91178927D02*
G01*
X152662812Y-91208624D01*
X152826784Y-91276544D01*
X152974354Y-91375147D01*
X153099853Y-91500646D01*
X153198456Y-91648216D01*
X153266376Y-91812188D01*
X153301000Y-91986259D01*
X153301000Y-92163741D01*
X153266376Y-92337812D01*
X153198456Y-92501784D01*
X153099853Y-92649354D01*
X152974354Y-92774853D01*
X152826784Y-92873456D01*
X152662812Y-92941376D01*
X152513512Y-92971073D01*
X152488742Y-92976000D01*
X152311258Y-92976000D01*
X152286488Y-92971073D01*
X152137188Y-92941376D01*
X151973216Y-92873456D01*
X151825646Y-92774853D01*
X151700147Y-92649354D01*
X151601544Y-92501784D01*
X151533624Y-92337812D01*
X151499000Y-92163741D01*
X151499000Y-91986259D01*
X151533624Y-91812188D01*
X151601544Y-91648216D01*
X151700147Y-91500646D01*
X151825646Y-91375147D01*
X151973216Y-91276544D01*
X152137188Y-91208624D01*
X152286488Y-91178927D01*
X152311258Y-91174000D01*
X152488742Y-91174000D01*
X152513512Y-91178927D01*
G37*
G36*
X149973512Y-91178927D02*
G01*
X150122812Y-91208624D01*
X150286784Y-91276544D01*
X150434354Y-91375147D01*
X150559853Y-91500646D01*
X150658456Y-91648216D01*
X150726376Y-91812188D01*
X150761000Y-91986259D01*
X150761000Y-92163741D01*
X150726376Y-92337812D01*
X150658456Y-92501784D01*
X150559853Y-92649354D01*
X150434354Y-92774853D01*
X150286784Y-92873456D01*
X150122812Y-92941376D01*
X149973512Y-92971073D01*
X149948742Y-92976000D01*
X149771258Y-92976000D01*
X149746488Y-92971073D01*
X149597188Y-92941376D01*
X149433216Y-92873456D01*
X149285646Y-92774853D01*
X149160147Y-92649354D01*
X149061544Y-92501784D01*
X148993624Y-92337812D01*
X148959000Y-92163741D01*
X148959000Y-91986259D01*
X148993624Y-91812188D01*
X149061544Y-91648216D01*
X149160147Y-91500646D01*
X149285646Y-91375147D01*
X149433216Y-91276544D01*
X149597188Y-91208624D01*
X149746488Y-91178927D01*
X149771258Y-91174000D01*
X149948742Y-91174000D01*
X149973512Y-91178927D01*
G37*
G36*
X135138642Y-91304781D02*
G01*
X135284414Y-91365162D01*
X135284416Y-91365163D01*
X135415608Y-91452822D01*
X135527178Y-91564392D01*
X135583187Y-91648216D01*
X135614838Y-91695586D01*
X135675219Y-91841358D01*
X135706000Y-91996107D01*
X135706000Y-92153893D01*
X135675219Y-92308642D01*
X135663136Y-92337812D01*
X135614837Y-92454416D01*
X135527178Y-92585608D01*
X135415608Y-92697178D01*
X135284416Y-92784837D01*
X135284415Y-92784838D01*
X135284414Y-92784838D01*
X135138642Y-92845219D01*
X134983893Y-92876000D01*
X134826107Y-92876000D01*
X134671358Y-92845219D01*
X134525586Y-92784838D01*
X134525585Y-92784838D01*
X134525584Y-92784837D01*
X134394392Y-92697178D01*
X134282822Y-92585608D01*
X134195163Y-92454416D01*
X134146864Y-92337812D01*
X134134781Y-92308642D01*
X134104000Y-92153893D01*
X134104000Y-91996107D01*
X134134781Y-91841358D01*
X134195162Y-91695586D01*
X134226813Y-91648216D01*
X134282822Y-91564392D01*
X134394392Y-91452822D01*
X134525584Y-91365163D01*
X134525586Y-91365162D01*
X134671358Y-91304781D01*
X134826107Y-91274000D01*
X134983893Y-91274000D01*
X135138642Y-91304781D01*
G37*
G36*
X129138642Y-91304781D02*
G01*
X129284414Y-91365162D01*
X129284416Y-91365163D01*
X129415608Y-91452822D01*
X129527178Y-91564392D01*
X129583187Y-91648216D01*
X129614838Y-91695586D01*
X129675219Y-91841358D01*
X129706000Y-91996107D01*
X129706000Y-92153893D01*
X129675219Y-92308642D01*
X129663136Y-92337812D01*
X129614837Y-92454416D01*
X129527178Y-92585608D01*
X129415608Y-92697178D01*
X129284416Y-92784837D01*
X129284415Y-92784838D01*
X129284414Y-92784838D01*
X129138642Y-92845219D01*
X128983893Y-92876000D01*
X128826107Y-92876000D01*
X128671358Y-92845219D01*
X128525586Y-92784838D01*
X128525585Y-92784838D01*
X128525584Y-92784837D01*
X128394392Y-92697178D01*
X128282822Y-92585608D01*
X128195163Y-92454416D01*
X128146864Y-92337812D01*
X128134781Y-92308642D01*
X128104000Y-92153893D01*
X128104000Y-91996107D01*
X128134781Y-91841358D01*
X128195162Y-91695586D01*
X128226813Y-91648216D01*
X128282822Y-91564392D01*
X128394392Y-91452822D01*
X128525584Y-91365163D01*
X128525586Y-91365162D01*
X128671358Y-91304781D01*
X128826107Y-91274000D01*
X128983893Y-91274000D01*
X129138642Y-91304781D01*
G37*
G36*
X150761000Y-89166000D02*
G01*
X148959000Y-89166000D01*
X148959000Y-87364000D01*
X150761000Y-87364000D01*
X150761000Y-89166000D01*
G37*
G36*
X152513512Y-87368927D02*
G01*
X152662812Y-87398624D01*
X152826784Y-87466544D01*
X152974354Y-87565147D01*
X153099853Y-87690646D01*
X153198456Y-87838216D01*
X153266376Y-88002188D01*
X153301000Y-88176259D01*
X153301000Y-88353741D01*
X153266376Y-88527812D01*
X153198456Y-88691784D01*
X153099853Y-88839354D01*
X152974354Y-88964853D01*
X152826784Y-89063456D01*
X152662812Y-89131376D01*
X152513512Y-89161073D01*
X152488742Y-89166000D01*
X152311258Y-89166000D01*
X152286488Y-89161073D01*
X152137188Y-89131376D01*
X151973216Y-89063456D01*
X151825646Y-88964853D01*
X151700147Y-88839354D01*
X151601544Y-88691784D01*
X151533624Y-88527812D01*
X151499000Y-88353741D01*
X151499000Y-88176259D01*
X151533624Y-88002188D01*
X151601544Y-87838216D01*
X151700147Y-87690646D01*
X151825646Y-87565147D01*
X151973216Y-87466544D01*
X152137188Y-87398624D01*
X152286488Y-87368927D01*
X152311258Y-87364000D01*
X152488742Y-87364000D01*
X152513512Y-87368927D01*
G37*
G36*
X155053512Y-87368927D02*
G01*
X155202812Y-87398624D01*
X155366784Y-87466544D01*
X155514354Y-87565147D01*
X155639853Y-87690646D01*
X155738456Y-87838216D01*
X155806376Y-88002188D01*
X155841000Y-88176259D01*
X155841000Y-88353741D01*
X155806376Y-88527812D01*
X155738456Y-88691784D01*
X155639853Y-88839354D01*
X155514354Y-88964853D01*
X155366784Y-89063456D01*
X155202812Y-89131376D01*
X155053512Y-89161073D01*
X155028742Y-89166000D01*
X154851258Y-89166000D01*
X154826488Y-89161073D01*
X154677188Y-89131376D01*
X154513216Y-89063456D01*
X154365646Y-88964853D01*
X154240147Y-88839354D01*
X154141544Y-88691784D01*
X154073624Y-88527812D01*
X154039000Y-88353741D01*
X154039000Y-88176259D01*
X154073624Y-88002188D01*
X154141544Y-87838216D01*
X154240147Y-87690646D01*
X154365646Y-87565147D01*
X154513216Y-87466544D01*
X154677188Y-87398624D01*
X154826488Y-87368927D01*
X154851258Y-87364000D01*
X155028742Y-87364000D01*
X155053512Y-87368927D01*
G37*
G36*
X149973512Y-84828927D02*
G01*
X150122812Y-84858624D01*
X150286784Y-84926544D01*
X150434354Y-85025147D01*
X150559853Y-85150646D01*
X150658456Y-85298216D01*
X150726376Y-85462188D01*
X150761000Y-85636259D01*
X150761000Y-85813741D01*
X150726376Y-85987812D01*
X150658456Y-86151784D01*
X150559853Y-86299354D01*
X150434354Y-86424853D01*
X150286784Y-86523456D01*
X150122812Y-86591376D01*
X149973512Y-86621073D01*
X149948742Y-86626000D01*
X149771258Y-86626000D01*
X149746488Y-86621073D01*
X149597188Y-86591376D01*
X149433216Y-86523456D01*
X149285646Y-86424853D01*
X149160147Y-86299354D01*
X149061544Y-86151784D01*
X148993624Y-85987812D01*
X148959000Y-85813741D01*
X148959000Y-85636259D01*
X148993624Y-85462188D01*
X149061544Y-85298216D01*
X149160147Y-85150646D01*
X149285646Y-85025147D01*
X149433216Y-84926544D01*
X149597188Y-84858624D01*
X149746488Y-84828927D01*
X149771258Y-84824000D01*
X149948742Y-84824000D01*
X149973512Y-84828927D01*
G37*
G36*
X152513512Y-84828927D02*
G01*
X152662812Y-84858624D01*
X152826784Y-84926544D01*
X152974354Y-85025147D01*
X153099853Y-85150646D01*
X153198456Y-85298216D01*
X153266376Y-85462188D01*
X153301000Y-85636259D01*
X153301000Y-85813741D01*
X153266376Y-85987812D01*
X153198456Y-86151784D01*
X153099853Y-86299354D01*
X152974354Y-86424853D01*
X152826784Y-86523456D01*
X152662812Y-86591376D01*
X152513512Y-86621073D01*
X152488742Y-86626000D01*
X152311258Y-86626000D01*
X152286488Y-86621073D01*
X152137188Y-86591376D01*
X151973216Y-86523456D01*
X151825646Y-86424853D01*
X151700147Y-86299354D01*
X151601544Y-86151784D01*
X151533624Y-85987812D01*
X151499000Y-85813741D01*
X151499000Y-85636259D01*
X151533624Y-85462188D01*
X151601544Y-85298216D01*
X151700147Y-85150646D01*
X151825646Y-85025147D01*
X151973216Y-84926544D01*
X152137188Y-84858624D01*
X152286488Y-84828927D01*
X152311258Y-84824000D01*
X152488742Y-84824000D01*
X152513512Y-84828927D01*
G37*
G36*
X155053512Y-84828927D02*
G01*
X155202812Y-84858624D01*
X155366784Y-84926544D01*
X155514354Y-85025147D01*
X155639853Y-85150646D01*
X155738456Y-85298216D01*
X155806376Y-85462188D01*
X155841000Y-85636259D01*
X155841000Y-85813741D01*
X155806376Y-85987812D01*
X155738456Y-86151784D01*
X155639853Y-86299354D01*
X155514354Y-86424853D01*
X155366784Y-86523456D01*
X155202812Y-86591376D01*
X155053512Y-86621073D01*
X155028742Y-86626000D01*
X154851258Y-86626000D01*
X154826488Y-86621073D01*
X154677188Y-86591376D01*
X154513216Y-86523456D01*
X154365646Y-86424853D01*
X154240147Y-86299354D01*
X154141544Y-86151784D01*
X154073624Y-85987812D01*
X154039000Y-85813741D01*
X154039000Y-85636259D01*
X154073624Y-85462188D01*
X154141544Y-85298216D01*
X154240147Y-85150646D01*
X154365646Y-85025147D01*
X154513216Y-84926544D01*
X154677188Y-84858624D01*
X154826488Y-84828927D01*
X154851258Y-84824000D01*
X155028742Y-84824000D01*
X155053512Y-84828927D01*
G37*
M02*
