G04 #@! TF.GenerationSoftware,KiCad,Pcbnew,(5.1.5)-3*
G04 #@! TF.CreationDate,2020-03-24T14:08:44+01:00*
G04 #@! TF.ProjectId,RiserBoard,52697365-7242-46f6-9172-642e6b696361,v0.0*
G04 #@! TF.SameCoordinates,Original*
G04 #@! TF.FileFunction,Paste,Bot*
G04 #@! TF.FilePolarity,Positive*
%FSLAX46Y46*%
G04 Gerber Fmt 4.6, Leading zero omitted, Abs format (unit mm)*
G04 Created by KiCad (PCBNEW (5.1.5)-3) date 2020-03-24 14:08:44*
%MOMM*%
%LPD*%
G04 APERTURE LIST*
%ADD10C,0.100000*%
G04 APERTURE END LIST*
D10*
G36*
X142327691Y-87156053D02*
G01*
X142348926Y-87159203D01*
X142369750Y-87164419D01*
X142389962Y-87171651D01*
X142409368Y-87180830D01*
X142427781Y-87191866D01*
X142445024Y-87204654D01*
X142460930Y-87219070D01*
X142475346Y-87234976D01*
X142488134Y-87252219D01*
X142499170Y-87270632D01*
X142508349Y-87290038D01*
X142515581Y-87310250D01*
X142520797Y-87331074D01*
X142523947Y-87352309D01*
X142525000Y-87373750D01*
X142525000Y-87886250D01*
X142523947Y-87907691D01*
X142520797Y-87928926D01*
X142515581Y-87949750D01*
X142508349Y-87969962D01*
X142499170Y-87989368D01*
X142488134Y-88007781D01*
X142475346Y-88025024D01*
X142460930Y-88040930D01*
X142445024Y-88055346D01*
X142427781Y-88068134D01*
X142409368Y-88079170D01*
X142389962Y-88088349D01*
X142369750Y-88095581D01*
X142348926Y-88100797D01*
X142327691Y-88103947D01*
X142306250Y-88105000D01*
X141868750Y-88105000D01*
X141847309Y-88103947D01*
X141826074Y-88100797D01*
X141805250Y-88095581D01*
X141785038Y-88088349D01*
X141765632Y-88079170D01*
X141747219Y-88068134D01*
X141729976Y-88055346D01*
X141714070Y-88040930D01*
X141699654Y-88025024D01*
X141686866Y-88007781D01*
X141675830Y-87989368D01*
X141666651Y-87969962D01*
X141659419Y-87949750D01*
X141654203Y-87928926D01*
X141651053Y-87907691D01*
X141650000Y-87886250D01*
X141650000Y-87373750D01*
X141651053Y-87352309D01*
X141654203Y-87331074D01*
X141659419Y-87310250D01*
X141666651Y-87290038D01*
X141675830Y-87270632D01*
X141686866Y-87252219D01*
X141699654Y-87234976D01*
X141714070Y-87219070D01*
X141729976Y-87204654D01*
X141747219Y-87191866D01*
X141765632Y-87180830D01*
X141785038Y-87171651D01*
X141805250Y-87164419D01*
X141826074Y-87159203D01*
X141847309Y-87156053D01*
X141868750Y-87155000D01*
X142306250Y-87155000D01*
X142327691Y-87156053D01*
G37*
G36*
X143902691Y-87156053D02*
G01*
X143923926Y-87159203D01*
X143944750Y-87164419D01*
X143964962Y-87171651D01*
X143984368Y-87180830D01*
X144002781Y-87191866D01*
X144020024Y-87204654D01*
X144035930Y-87219070D01*
X144050346Y-87234976D01*
X144063134Y-87252219D01*
X144074170Y-87270632D01*
X144083349Y-87290038D01*
X144090581Y-87310250D01*
X144095797Y-87331074D01*
X144098947Y-87352309D01*
X144100000Y-87373750D01*
X144100000Y-87886250D01*
X144098947Y-87907691D01*
X144095797Y-87928926D01*
X144090581Y-87949750D01*
X144083349Y-87969962D01*
X144074170Y-87989368D01*
X144063134Y-88007781D01*
X144050346Y-88025024D01*
X144035930Y-88040930D01*
X144020024Y-88055346D01*
X144002781Y-88068134D01*
X143984368Y-88079170D01*
X143964962Y-88088349D01*
X143944750Y-88095581D01*
X143923926Y-88100797D01*
X143902691Y-88103947D01*
X143881250Y-88105000D01*
X143443750Y-88105000D01*
X143422309Y-88103947D01*
X143401074Y-88100797D01*
X143380250Y-88095581D01*
X143360038Y-88088349D01*
X143340632Y-88079170D01*
X143322219Y-88068134D01*
X143304976Y-88055346D01*
X143289070Y-88040930D01*
X143274654Y-88025024D01*
X143261866Y-88007781D01*
X143250830Y-87989368D01*
X143241651Y-87969962D01*
X143234419Y-87949750D01*
X143229203Y-87928926D01*
X143226053Y-87907691D01*
X143225000Y-87886250D01*
X143225000Y-87373750D01*
X143226053Y-87352309D01*
X143229203Y-87331074D01*
X143234419Y-87310250D01*
X143241651Y-87290038D01*
X143250830Y-87270632D01*
X143261866Y-87252219D01*
X143274654Y-87234976D01*
X143289070Y-87219070D01*
X143304976Y-87204654D01*
X143322219Y-87191866D01*
X143340632Y-87180830D01*
X143360038Y-87171651D01*
X143380250Y-87164419D01*
X143401074Y-87159203D01*
X143422309Y-87156053D01*
X143443750Y-87155000D01*
X143881250Y-87155000D01*
X143902691Y-87156053D01*
G37*
M02*
